<?xml version="1.0" standalone="no"?>
<!DOCTYPE svg PUBLIC "-//W3C//DTD SVG 20010904//EN"
 "http://www.w3.org/TR/2001/REC-SVG-20010904/DTD/svg10.dtd">
<svg version="1.0" xmlns="http://www.w3.org/2000/svg"
 width="864.000000pt" height="864.000000pt" viewBox="0 0 864.000000 864.000000"
 preserveAspectRatio="xMidYMid meet">
<metadata>
Created by potrace 1.14, written by Peter Selinger 2001-2017
</metadata>
<g transform="translate(0.000000,864.000000) scale(0.100000,-0.100000)"
fill="#000000" stroke="none">
<path d="M4310 8062 c0 -6 -24 -49 -52 -96 -29 -47 -57 -94 -63 -104 -5 -9
-59 -100 -120 -200 -60 -100 -115 -190 -120 -200 -6 -9 -37 -62 -70 -117 -33
-55 -63 -107 -68 -115 -4 -8 -16 -28 -27 -45 -11 -16 -27 -45 -37 -62 -9 -18
-20 -33 -25 -33 -4 0 -8 -5 -8 -10 0 -6 -30 -61 -67 -123 -38 -62 -72 -120
-78 -129 -5 -10 -29 -49 -52 -88 -24 -38 -43 -74 -43 -79 0 -5 -4 -11 -8 -13
-4 -1 -47 -70 -96 -153 -49 -82 -99 -166 -112 -186 -13 -19 -24 -40 -24 -47 0
-7 -4 -12 -8 -12 -5 0 -18 -19 -31 -42 -12 -24 -62 -108 -111 -188 -49 -80
-94 -154 -100 -165 -5 -11 -20 -37 -32 -57 -13 -21 -52 -86 -87 -145 -35 -60
-74 -124 -87 -144 -13 -19 -24 -40 -24 -46 0 -6 -3 -13 -8 -15 -9 -4 -82 -126
-82 -139 0 -5 -4 -9 -8 -9 -4 0 -20 -24 -35 -54 -15 -30 -34 -59 -42 -66 -8
-7 -15 -16 -15 -21 0 -5 -12 -28 -27 -52 -35 -53 -57 -91 -84 -144 -13 -24
-26 -43 -31 -43 -4 0 -8 -4 -8 -10 0 -9 -68 -127 -117 -201 -13 -19 -23 -40
-23 -47 0 -7 -3 -12 -8 -12 -4 0 -18 -21 -32 -47 -13 -27 -27 -50 -30 -53 -4
-3 -22 -32 -40 -65 -19 -33 -37 -61 -42 -63 -4 -2 -8 -8 -8 -13 0 -5 -18 -38
-40 -73 -22 -35 -40 -68 -40 -74 0 -6 -3 -12 -8 -14 -4 -1 -63 -97 -132 -213
-69 -115 -128 -211 -132 -213 -5 -2 -8 -8 -8 -13 0 -5 -36 -68 -80 -140 -44
-73 -80 -133 -80 -135 0 -2 -20 -35 -45 -74 -25 -39 -45 -72 -45 -74 0 -2 -56
-96 -125 -210 -69 -114 -125 -211 -125 -216 0 -6 -4 -10 -10 -10 -5 0 -10 -4
-10 -8 0 -9 -123 -217 -141 -239 -6 -7 -8 -13 -5 -13 4 0 -2 -10 -14 -22 -11
-12 -20 -28 -20 -35 0 -7 -4 -13 -10 -13 -5 0 -10 -5 -10 -10 0 -6 -26 -53
-58 -105 -31 -52 -62 -103 -67 -112 -33 -57 -100 -169 -105 -173 -3 -3 -16
-25 -29 -50 -13 -25 -30 -52 -38 -61 -7 -9 -10 -19 -6 -22 3 -4 1 -7 -5 -7 -7
0 -12 -7 -12 -15 0 -8 -4 -15 -8 -15 -4 0 -18 -19 -30 -43 -12 -23 -31 -55
-42 -72 -10 -16 -25 -41 -33 -55 -7 -14 -46 -78 -85 -143 -40 -65 -72 -122
-72 -127 0 -6 -4 -10 -10 -10 -5 0 -10 -4 -10 -9 0 -6 -153 -268 -229 -391
-117 -188 -196 -329 -187 -332 6 -2 529 -3 1163 -2 1043 0 1151 -1 1145 -15
-3 -9 -10 -22 -16 -30 -5 -7 -41 -66 -78 -130 l-67 -116 1080 -3 c594 -1 1564
-1 2154 0 l1073 3 -49 83 c-27 45 -49 87 -49 92 0 5 -6 13 -12 17 -12 8 -51
82 -49 93 1 3 517 6 1148 7 632 1 1156 2 1165 2 15 1 14 8 -12 50 -17 26 -30
53 -30 60 0 6 -4 11 -9 11 -9 0 -21 20 -55 87 -6 13 -14 23 -18 23 -5 0 -8 5
-8 10 0 6 -15 35 -32 64 -18 28 -38 61 -45 72 -25 41 -108 180 -119 199 -6 11
-41 69 -77 128 -37 60 -67 113 -67 118 0 5 -4 9 -10 9 -5 0 -10 4 -10 9 0 9
-242 417 -260 438 -5 7 -10 19 -10 27 0 8 -4 16 -9 18 -5 2 -60 89 -122 193
-62 105 -122 204 -132 220 -9 17 -20 38 -23 48 -4 9 -10 17 -15 17 -5 0 -9 7
-9 15 0 8 -4 15 -10 15 -5 0 -10 4 -10 10 0 5 -45 84 -100 175 -55 90 -100
167 -100 170 0 3 -15 27 -34 54 -19 27 -33 51 -30 53 2 3 -5 13 -16 23 -11 10
-20 22 -20 28 0 5 -20 42 -45 81 -25 40 -45 78 -45 84 0 7 -4 12 -9 12 -5 0
-16 12 -23 28 -26 52 -163 277 -170 280 -5 2 -8 8 -8 13 0 5 -36 68 -80 140
-44 73 -80 136 -80 140 0 5 -4 9 -10 9 -5 0 -10 5 -10 11 0 7 -18 40 -40 75
-22 35 -40 68 -40 74 0 5 -4 10 -10 10 -5 0 -10 4 -10 8 0 9 -172 299 -190
319 -5 7 -10 14 -10 17 0 3 -31 57 -70 121 -38 64 -70 120 -70 125 0 4 -3 10
-8 12 -4 2 -36 53 -72 113 -35 61 -67 112 -70 115 -3 3 -12 18 -20 35 -8 16
-32 56 -52 87 -21 31 -38 62 -38 68 0 5 -4 10 -10 10 -5 0 -10 5 -10 11 0 5
-31 62 -70 125 -38 64 -70 120 -70 125 0 5 -4 9 -10 9 -5 0 -10 4 -10 8 0 5
-45 82 -100 173 -55 90 -106 175 -113 189 -7 14 -25 44 -40 67 -15 24 -27 47
-27 52 0 5 -4 11 -8 13 -5 2 -23 30 -42 63 -18 33 -36 62 -39 65 -3 3 -13 19
-21 35 -8 17 -17 32 -20 35 -3 3 -11 15 -17 28 -7 12 -19 32 -25 45 -7 12 -15
24 -18 27 -3 3 -11 15 -18 27 -27 49 -37 67 -45 77 -5 6 -45 73 -90 149 -45
76 -92 155 -105 175 -12 20 -25 44 -29 52 -4 8 -11 20 -16 25 -4 6 -45 72 -90
148 -107 179 -96 161 -147 247 -25 41 -49 82 -55 92 -21 34 -119 197 -188 313
-26 44 -52 87 -57 95 -89 147 -166 277 -169 285 -2 5 -7 12 -10 15 -3 3 -15
22 -26 43 -21 41 -45 67 -45 49z"/>
</g>
</svg>
