<svg xmlns="http://www.w3.org/2000/svg" xmlns:xlink="http://www.w3.org/1999/xlink" viewBox="0 0 1920 899.288">
  <defs>
    <radialGradient id="radial-gradient" cx="0.499" cy="0.004" r="1.538" gradientTransform="translate(0.266 0.003) scale(0.467 0.48)" gradientUnits="objectBoundingBox">
      <stop offset="0" stop-color="#fff"/>
      <stop offset="0.54" stop-color="#fcfcfc"/>
      <stop offset="0.92" stop-color="#f2f2f2"/>
      <stop offset="1" stop-color="#f0f0f0"/>
    </radialGradient>
    <linearGradient id="linear-gradient" x1="0.5" y1="0.056" x2="0.5" y2="0.915" gradientUnits="objectBoundingBox">
      <stop offset="0" stop-color="#c8c8c8"/>
      <stop offset="1" stop-color="#c8c8c8"/>
    </linearGradient>
    <linearGradient id="linear-gradient-2" x1="0.5" y1="-0.316" x2="0.5" y2="1.284" gradientUnits="objectBoundingBox">
      <stop offset="0" stop-color="#fff"/>
      <stop offset="0.07" stop-color="#f9f9f9"/>
      <stop offset="0.33" stop-color="#e8e8e8"/>
      <stop offset="0.62" stop-color="#dfdfdf"/>
      <stop offset="1" stop-color="#dcdcdc"/>
    </linearGradient>
    <linearGradient id="linear-gradient-3" x1="0.581" y1="0.443" x2="0.269" y2="0.662" gradientUnits="objectBoundingBox">
      <stop offset="0" stop-color="#dcdcdc" stop-opacity="0"/>
      <stop offset="1" stop-color="#dcdcdc"/>
    </linearGradient>
    <linearGradient id="linear-gradient-4" x1="0.5" y1="-0.166" x2="0.5" y2="1.119" gradientUnits="objectBoundingBox">
      <stop offset="0" stop-color="#fff"/>
      <stop offset="0.02" stop-color="#fdfdfd"/>
      <stop offset="0.33" stop-color="#eaeaea"/>
      <stop offset="0.65" stop-color="#dfdfdf"/>
      <stop offset="1" stop-color="#dcdcdc"/>
    </linearGradient>
    <linearGradient id="linear-gradient-5" x1="0.44" y1="0.539" x2="0.163" y2="0.718" xlink:href="#linear-gradient-3"/>
    <linearGradient id="linear-gradient-6" x1="0.5" y1="-0.173" x2="0.5" y2="0.998" gradientUnits="objectBoundingBox">
      <stop offset="0" stop-color="#fff"/>
      <stop offset="0.28" stop-color="#efefef"/>
      <stop offset="0.67" stop-color="#e1e1e1"/>
      <stop offset="1" stop-color="#dcdcdc"/>
    </linearGradient>
    <linearGradient id="linear-gradient-7" x1="0.571" y1="0.463" x2="0.257" y2="0.629" gradientUnits="objectBoundingBox">
      <stop offset="0" stop-color="#f0f0f0" stop-opacity="0"/>
      <stop offset="0.23" stop-color="#e7e7e7" stop-opacity="0.212"/>
      <stop offset="0.74" stop-color="#d3d3d3" stop-opacity="0.722"/>
      <stop offset="1" stop-color="#c8c8c8"/>
    </linearGradient>
    <linearGradient id="linear-gradient-8" x1="0.5" y1="1.161" x2="0.5" y2="0.428" gradientUnits="objectBoundingBox">
      <stop offset="0" stop-color="#f7f7f7"/>
      <stop offset="1" stop-color="#dcdcdc"/>
    </linearGradient>
  </defs>
  <g id="hory" style="isolation: isolate">
    <g id="BACKGROUND">
      <rect id="background-2" data-name="background" width="1920" height="893" fill="url(#radial-gradient)"/>
    </g>
    <g id="mountains" transform="translate(0.154 235.956)">
      <path id="cloud" d="M1919.865,210.419V755.227H.07V229.852c12.927-13.323,35.862-22.179,62-22.179,31.152,0,57.722,12.579,68.294,30.291a136.646,136.646,0,0,1,42.7-6.623,143.014,143.014,0,0,1,23.319,1.874c2.585-18.2,26.263-32.448,55.085-32.448a85.564,85.564,0,0,1,11.647.8c10.623-22.41,42.85-38.686,80.99-38.686,33.481,0,62.406,12.553,76.152,30.779,11.186-6.366,25.828-10.217,41.9-10.217q2.88,0,5.683.154a23.489,23.489,0,0,1-5.683-14.863c0-17.687,22.193-32.037,49.556-32.037a76.115,76.115,0,0,1,10.956.821c20.555-26.877,63.379-45.334,112.91-45.334,65.222,0,118.848,32.037,125.3,73.084a114.826,114.826,0,0,1,35.785,7.984c12.184-13.374,34.684-22.333,60.435-22.333,17.048,0,32.662,3.928,44.821,10.474,22.679-12.681,52.244-20.357,84.6-20.357,68.78,0,124.992,34.681,129.164,78.424a113.381,113.381,0,0,1,13.694-.847,103.932,103.932,0,0,1,34.966,5.853c9.369-13.015,29.77-22.025,53.422-22.025,32.457,0,58.8,16.968,58.925,37.916a122.831,122.831,0,0,1,38.089-5.879c44.1,0,80.273,21.948,83.857,49.852a142.582,142.582,0,0,1,22.27-1.746c26.109,0,49.684,7.008,66.553,18.226,12.671-14.786,34.966-25.645,61.433-29.034a20.463,20.463,0,0,1-2.406-9.447c0-16.4,20.58-29.727,45.973-29.727a67.516,67.516,0,0,1,20.631,3.183c12.594-20.485,43.515-35.015,79.736-35.015a123.913,123.913,0,0,1,40.828,6.674c21.3-17.482,54.292-28.725,91.382-28.725,39.164,0,73.8,12.527,94.838,31.678Z" transform="translate(-0.044 -92.18)" fill="url(#linear-gradient)" style="mix-blend-mode: screen;isolation: isolate"/>
      <path id="mountain2" d="M959.33,577.274H136.25s321.5-347.944,355.264-381.092c4.94-4.863,10.034-7.014,15.2-7.09,30.128-.461,63.2,68.089,87.824,66.348,28.874-2.1,19.659-71.365,130.8,55.8C823.076,423.1,959.33,577.274,959.33,577.274Z" transform="translate(212.359 60.867)" fill="url(#linear-gradient-2)"/>
      <path id="mountain2_shadow" d="M733.607,577.258H496.729c-36.63-73.976-124.07-248.217-141.5-260.273-22.142-15.333-30.666-43.464-51.118-91.177-8.14-18.993-16.28-30.128-23.14-36.706,30.128-.461,63.2,68.089,87.824,66.348,28.874-2.1,19.659-71.365,130.8,55.8,97.73,111.86,233.985,266.032,233.985,266.032Z" transform="translate(438.083 60.883)" opacity="0.5" fill="url(#linear-gradient-3)" style="mix-blend-mode: multiply;isolation: isolate"/>
      <path id="mountain1" d="M.086,635.981H1003.831c-115.6-55.341-399.625-277.935-422.995-302.508-23.37-24.6-51.655-39.343-82.4-66.4C467.7,239.991,400.529,164.838,378.9,154.445a17.421,17.421,0,0,0-7.372-1.843c-18.968-.384-38.7,31.408-82.6,64.1-49.556,36.886-78.942,35.606-131.135,92.176C136.237,332.244,70.171,392.116.06,454.343V635.981Z" transform="translate(-0.06 3.952)" fill="url(#linear-gradient-4)"/>
      <path id="mointain1_shadow" d="M777.468,635.979H370.932c-26.877-49.275-69.778-128.4-86.442-161.647-25.111-49.991-20.836-70.853-78.174-158.14-38.6-58.771-54.7-125.964-61.126-163.592a17.421,17.421,0,0,1,7.372,1.843c21.63,10.392,88.771,85.572,119.539,112.628,30.717,27.056,59.027,41.8,82.4,66.4S661.9,580.638,777.494,635.979Z" transform="translate(226.303 3.954)" opacity="0.5" fill="url(#linear-gradient-5)" style="mix-blend-mode: multiply;isolation: isolate"/>
      <path id="mountain3" d="M1540.446,605.148C1454.337,528.5,1354.738,439.913,1316.7,406.276c-72.543-64.142-81.45-97.7-135.256-133.214-31.254-20.645-63.583-51.432-83.652-71.871-11.621-11.863-20.99-25.652-29.9-39.672-27.645-43.395-45.128-58.442-60.563-56.388-19.019,2.516-34.966,30.967-63.123,64.322-35.759,42.393-42.415,44.91-62.918,58.9-58.925,40.237-137.15,155.579-184.428,160.715-43.976,4.776-51.553-2.516-90.9,13.532C580.6,412.9,316.666,648.876,243.33,712.222H1540.446V605.173Z" transform="translate(379.375 -72.264)" fill="url(#linear-gradient-6)"/>
      <path id="mountain3_shadow" d="M1074.914,605.148C988.8,528.5,889.206,439.914,851.169,406.276c-72.543-64.142-81.451-97.7-135.256-133.214-31.254-20.645-63.584-51.432-83.652-71.871-11.621-11.863-20.99-25.652-29.9-39.672-27.645-43.395-45.128-58.442-60.563-56.388,9.138,13.969,24.7,43.164,36.3,92.824,17.483,74.747,8.293,110.926,81.015,209.759,57.031,77.469,131.6,238.543,161.135,304.483H1074.94V605.148Z" transform="translate(844.906 -72.264)" opacity="0.5" fill="url(#linear-gradient-7)" style="mix-blend-mode: multiply;isolation: isolate"/>
      <path id="forrest" d="M1919.865,399.585v92.867H.07V285.933c2.227-.538,4.787-1.433,6.886-1.305,7.7.461,10.981,6.015,15.358,11.135,8.754-9.266,27.7-8.063,38.4-2.278,10.316,5.529,16.305,23.038,29.027,21.118,6.655-1.024,9.778-6.527,17.918-4.787,5.708,1.2,9.317,7.628,14.258,8.882,6.988,1.792,8.038-3.84,14.078-7.065a21.08,21.08,0,0,1,10.06-2.585c2.3,0,7.884,2.073,9.369,1.664,7.986-2.38,7.7-13.106,13.669-16.613,3.609-2.125,8.78-.23,11.749-2.534,3.251-2.509,2.3-9.522,6.834-12.671,3.993-2.79,8.422-2.073,12.978-2.918,8.345-1.536,5.324-1.587,11.058-7.142,6.4-6.22,18.584-7.7,25.623-2.253,15.819-16.305,31.2-5.862,40.264,9.241,8.166-.742,14.539-4.787,22.884-1.433,5.35,2.15,13.618,7.321,12.952,13.285,13.567-4.736,24.317-11.032,39.957-10.136A44.046,44.046,0,0,1,373,283.22c1.817,1,6.476,4.505,8.345,4.761,4.1.563,4.531-2.227,8.729-2.637,10.776-1.075,7.807,6.118,13.413,10.316,3.225,2.406,5.657.845,8.78,2.3,2.585,1.254,4.48,4.735,6.783,5.734,7.244,3.072,11.365-4.019,18.814-1.817,7.346,2.15,5.273,7.577,14.488,7.142,5.4-.282,12.287-3.507,17.765-.666,6.911,3.584,5.017,10.034,6.988,15.589,3.584,10.085,18.558,9.957,24.753,19.684,4.582-10.469,19.249-17.381,31.587-14.974,2.483.461,4.633,3.225,7.014,3.763,4.71,1,3.66-.435,8.319-.794,6.937-.589,12.312,1.306,18.968,2.381,3.609.589,5.555.179,8.575,1.715,2.329,1.177,3.353,4.275,6.578,5.555a71.848,71.848,0,0,0,8.7,1.382c6.323.563,4.019,2.022,8.37-2.15,5.785-5.555,5.3-7.6,14.514-10.29,5.452-1.613,11.314-7.244,17.048-7.833,6.911-.717,13.874,5.452,16.024,10.444,3.737,8.6.435,10.111,10.418,15.717,6.579,3.712,11.186,6.937,17.918,5.375,7.09-1.664,11.749-10.034,20.5-8.7,8.933,1.331,6.3,10.751,14.514,8.7,6.681-1.689,10.444-9.906,18.712-11.084,14.027-1.971,24.138,10.546,34.992-1.51,7.577-8.422,11.6-8.524,22.244-11.647,11.007-3.225,15.922-4.556,24.906,2.79,4.1,3.328,5.043,6.092,10.9,5.529,6.834-.691,11.058-5.939,19.454-5.35,10.188.742,16.305,5.375,15.666,15.614,7.7,3.1,13.029-1.766,20.119,4.224,7.577,6.425,5.99,7.474,16.433,8.447,15.1,1.382,26.826,14.411,40.111,15.794,9.113-11.391,26.16-13.951,39.957-10.9.179.742.051,1.382.256,2.125,4.94,2.329,14.565-3.635,21.22-3.814,10.162-.281,11.7,2.022,14.642,10.111,9.189.23,19.454,1.28,24.8,9.369,5.683,8.549-.768,13.362,10.034,17.688,4.07,1.664,8.447,1.433,11.928,4.505,3.046,2.713,3.148,7.986,6.809,9.522,2.585,1.1,9.138-2.048,12.824-1.408a18.031,18.031,0,0,1,11.237,6.758c4.4-.179,6.553-6.143,10.956-8.319,4.121-2,8.524-1.613,12.671-2.662-1.075-16.561,9.855-25.9,27.44-25.085,2.739.128,7.6,1.638,10.034.666,2.765-1.075,4.4-5.631,7.884-7.167,6.527-2.892,13.055-1.92,17.022,3.379,5.324,7.065,1.382,9.625,12.875,8.652,9.318-.768,10.367,1.433,18.1,4.505,6.067,2.432,9.676-.614,17.688-.563,9.215.051,8.6,4.121,15.154,7.116,6.5,2.969,16.613-3.635,25.8-3.174,9.036.461,14.59,5.529,18.072,13.234,10.981-2.918,23.882-1.817,26.314,11.16,5.734-5.58,18.763-8.089,26.724-9.189,5.12-.717,10.725,2.15,15.077,1.177,6.86-1.51,4.556-2.432,9.932-7.628,6.271-6.092,14.59-13.669,24.65-11.544,11.979,2.509,9.855,13.336,15.307,20.247,2.969-3.532,6.3-7.782,11.544-8.7,9.906-1.741,9.471,6.886,17,9.5,6.758,2.329,21.476-1.945,24.957-7.116,2.278-3.4,1.561-10.136,3.84-14.181,2.713-4.863,6.067-7.27,7.961-12.7,1.587-4.531-.717-9.5,1.536-13.9,1.792-3.507,6.834-5.99,8.933-9.5,13.848.41,8.55,33.148,30.768,33.2,4.4,0,9.138-3.609,15.077-2.713,4.352.666,8.857,5.324,11.826,5.657,8.14.973,16.638-7.756,27.875-4.582,3.66,1.049,6.783,5.836,10.521,6.886,7.628,2.15,5.529-.23,13.771-2.176a53.789,53.789,0,0,1,16.638-1.075c7.321.768,8.063,4.275,11.7,5.631,10.469,3.916,24.855-.461,32.867,8.805,5.887,6.834,4.94,18.379,8.882,24.8,3.379,5.555,7.577,4.966,8.191,13.695,10.213-.077,11.647.845,20.3,3.712,10.06,3.3,3.558,3.737,14.386-2.048,13.618-7.3,23.37-7.782,36.783-.154,9.445-8.4,17.15-5.683,26.6-1.254,6.655,3.123,2.637,4.224,10.162,4.326,3.968.051,8.063-3.328,13.157-3.2,11.544.307,17.534,9.266,21.758-5.913,2.56-9.241-1.254-21.962,15.154-20.273-1.024-23.6,20.35-20.273,36.041-23.37,9.164-1.792,11.544-6.962,21.681-2.176,7.91,3.737,10.418,11.672,16.715,16.433,7.27-8.217,14.744-14.206,23.4-13.49Z" transform="translate(-0.044 170.88)" fill="url(#linear-gradient-8)"/>
    </g>
  </g>
</svg>
