<svg width="1920" height="900" viewBox="0 0 1920 900" fill="none" xmlns="http://www.w3.org/2000/svg">
<g clip-path="url(#clip0_404_15)">
<path d="M1920 0H0V893H1920V0Z" fill="url(#paint0_radial_404_15)"/>
<g style="mix-blend-mode:screen">
<path d="M1919.97 354.195V899.003H0.179932V373.628C13.1069 360.305 36.0419 351.449 62.1799 351.449C93.3319 351.449 119.902 364.028 130.474 381.74C144.266 377.282 158.679 375.046 173.174 375.117C180.985 375.104 188.784 375.731 196.493 376.991C199.078 358.791 222.756 344.543 251.578 344.543C255.474 344.544 259.365 344.811 263.225 345.343C273.848 322.933 306.075 306.657 344.215 306.657C377.696 306.657 406.621 319.21 420.367 337.436C431.553 331.07 446.195 327.219 462.267 327.219C464.187 327.219 466.081 327.27 467.95 327.373C464.384 323.231 462.374 317.975 462.267 312.51C462.267 294.823 484.46 280.473 511.823 280.473C515.49 280.482 519.151 280.757 522.779 281.294C543.334 254.417 586.158 235.96 635.689 235.96C700.911 235.96 754.537 267.997 760.989 309.044C773.268 309.771 785.35 312.467 796.774 317.028C808.958 303.654 831.458 294.695 857.209 294.695C874.257 294.695 889.871 298.623 902.03 305.169C924.709 292.488 954.274 284.812 986.63 284.812C1055.41 284.812 1111.62 319.493 1115.79 363.236C1120.34 362.677 1124.91 362.395 1129.49 362.389C1141.39 362.323 1153.22 364.303 1164.45 368.242C1173.82 355.227 1194.22 346.217 1217.88 346.217C1250.33 346.217 1276.68 363.185 1276.8 384.133C1289.11 380.181 1301.96 378.197 1314.89 378.254C1358.99 378.254 1395.16 400.202 1398.75 428.106C1406.11 426.942 1413.56 426.359 1421.02 426.36C1447.13 426.36 1470.7 433.368 1487.57 444.586C1500.24 429.8 1522.54 418.941 1549 415.552C1547.45 412.643 1546.63 409.402 1546.6 406.105C1546.6 389.705 1567.18 376.378 1592.57 376.378C1599.57 376.363 1606.53 377.437 1613.2 379.561C1625.79 359.076 1656.72 344.546 1692.94 344.546C1706.82 344.467 1720.63 346.723 1733.77 351.22C1755.07 333.738 1788.06 322.495 1825.15 322.495C1864.31 322.495 1898.95 335.022 1919.98 354.173L1919.97 354.195Z" fill="#D9D9D9"/>
</g>
<path d="M1171.84 874.097H348.763C348.763 874.097 670.263 526.153 704.027 493.005C708.967 488.142 714.061 485.991 719.227 485.915C749.355 485.454 782.427 554.004 807.051 552.263C835.925 550.163 826.71 480.898 937.851 608.063C1035.59 719.923 1171.84 874.097 1171.84 874.097Z" fill="url(#paint1_linear_404_15)"/>
<path style="mix-blend-mode:multiply" opacity="0.5" d="M1171.84 874.097H934.966C898.336 800.121 810.896 625.88 793.466 613.824C771.324 598.491 762.8 570.36 742.348 522.647C734.208 503.654 726.068 492.519 719.208 485.941C749.336 485.48 782.408 554.03 807.032 552.289C835.906 550.189 826.691 480.924 937.832 608.089C1035.56 719.949 1171.82 874.121 1171.82 874.121L1171.84 874.097Z" fill="url(#paint2_linear_404_15)"/>
<path d="M0.180053 875.889H1003.93C888.325 820.548 604.3 597.954 580.93 573.381C557.56 548.781 529.275 534.038 498.53 506.981C467.794 479.899 400.623 404.746 378.994 394.353C376.702 393.204 374.185 392.574 371.622 392.51C352.654 392.126 332.922 423.918 289.022 456.61C239.466 493.496 210.08 492.216 157.887 548.786C136.331 572.152 70.2651 632.024 0.154053 694.251V875.889H0.180053Z" fill="url(#paint3_linear_404_15)"/>
<path style="mix-blend-mode:multiply" opacity="0.5" d="M1003.92 875.889H597.389C570.512 826.614 527.611 747.489 510.947 714.242C485.836 664.251 490.111 643.389 432.773 556.102C394.173 497.331 378.073 430.138 371.647 392.51C374.21 392.574 376.727 393.204 379.019 394.353C400.649 404.745 467.79 479.925 498.558 506.981C529.275 534.037 557.585 548.781 580.958 573.381C604.331 597.981 888.357 820.548 1003.95 875.889H1003.92Z" fill="url(#paint4_linear_404_15)"/>
<path d="M1919.97 768.84C1833.87 692.192 1734.27 603.605 1696.23 569.968C1623.69 505.826 1614.78 472.268 1560.97 436.754C1529.72 416.109 1497.39 385.322 1477.32 364.883C1465.7 353.02 1456.33 339.231 1447.42 325.211C1419.78 281.816 1402.29 266.769 1386.86 268.823C1367.84 271.339 1351.89 299.79 1323.73 333.145C1287.98 375.538 1281.32 378.055 1260.82 392.045C1201.89 432.282 1123.67 547.624 1076.39 552.76C1032.41 557.536 1024.84 550.244 985.489 566.292C960.129 576.592 696.195 812.568 622.859 875.914H1919.97V768.865V768.84Z" fill="url(#paint5_linear_404_15)"/>
<path style="mix-blend-mode:multiply" opacity="0.5" d="M1919.97 768.84C1833.86 692.192 1734.27 603.606 1696.23 569.968C1623.69 505.826 1614.78 472.268 1560.97 436.754C1529.72 416.109 1497.39 385.322 1477.32 364.883C1465.7 353.02 1456.33 339.231 1447.42 325.211C1419.78 281.816 1402.29 266.769 1386.86 268.823C1396 282.792 1411.56 311.987 1423.16 361.647C1440.64 436.394 1431.45 472.573 1504.17 571.406C1561.2 648.875 1635.77 809.949 1665.31 875.889H1920V768.84H1919.97Z" fill="url(#paint6_linear_404_15)"/>
<path d="M1919.97 806.421V899.288H0.179932V692.769C2.40693 692.231 4.96693 691.336 7.06593 691.464C14.7659 691.925 18.0469 697.479 22.4239 702.599C31.1779 693.333 50.1239 694.536 60.8239 700.321C71.1399 705.85 77.1289 723.359 89.8509 721.439C96.5059 720.415 99.6289 714.912 107.769 716.652C113.477 717.852 117.086 724.28 122.027 725.534C129.015 727.326 130.065 721.694 136.105 718.469C139.19 716.782 142.648 715.893 146.165 715.884C148.465 715.884 154.049 717.957 155.534 717.548C163.52 715.168 163.234 704.442 169.203 700.935C172.812 698.81 177.983 700.705 180.952 698.401C184.203 695.892 183.252 688.879 187.786 685.73C191.779 682.94 196.208 683.657 200.764 682.812C209.109 681.276 206.088 681.225 211.822 675.67C218.222 669.45 230.406 667.97 237.445 673.417C253.264 657.112 268.645 667.555 277.709 682.658C285.875 681.916 292.248 677.871 300.593 681.225C305.943 683.375 314.211 688.546 313.545 694.51C327.112 689.774 337.862 683.478 353.502 684.374C360.393 684.706 367.109 686.653 373.11 690.056C374.927 691.056 379.586 694.561 381.455 694.817C385.555 695.38 385.986 692.59 390.184 692.18C400.96 691.105 397.991 698.298 403.597 702.496C406.822 704.902 409.254 703.341 412.377 704.796C414.962 706.05 416.857 709.531 419.16 710.53C426.404 713.602 430.525 706.511 437.974 708.713C445.32 710.863 443.247 716.29 452.462 715.855C457.862 715.573 464.749 712.348 470.227 715.189C477.138 718.773 475.244 725.223 477.215 730.778C480.799 740.863 495.773 740.735 501.968 750.462C506.55 739.993 521.217 733.081 533.555 735.488C536.038 735.949 538.188 738.713 540.569 739.251C545.279 740.251 544.229 738.816 548.888 738.457C555.825 737.868 561.2 739.763 567.856 740.838C571.465 741.427 573.411 741.017 576.431 742.553C578.76 743.73 579.784 746.828 583.009 748.108C585.878 748.746 588.783 749.208 591.709 749.49C598.032 750.053 595.728 751.512 600.079 747.34C605.864 741.785 605.379 739.74 614.593 737.05C620.045 735.437 625.907 729.806 631.641 729.217C638.552 728.5 645.515 734.669 647.665 739.661C651.402 748.261 648.1 749.772 658.083 755.378C664.662 759.09 669.269 762.315 676.001 760.753C683.091 759.089 687.75 750.719 696.501 752.053C705.434 753.384 702.801 762.804 711.015 760.753C717.696 759.064 721.459 750.847 729.727 749.669C743.754 747.698 753.865 760.215 764.719 748.159C772.296 739.737 776.319 739.635 786.963 736.512C797.97 733.287 802.885 731.956 811.869 739.302C815.969 742.63 816.912 745.394 822.769 744.831C829.603 744.14 833.827 738.892 842.223 739.481C852.411 740.223 858.528 744.856 857.889 755.095C865.589 758.195 870.918 753.329 878.008 759.319C885.585 765.744 883.998 766.793 894.441 767.766C909.541 769.148 921.267 782.177 934.552 783.56C943.665 772.169 960.712 769.609 974.509 772.66C974.688 773.402 974.56 774.042 974.765 774.785C979.705 777.114 989.33 771.15 995.985 770.971C1006.15 770.69 1007.68 772.993 1010.63 781.082C1019.82 781.312 1030.08 782.362 1035.43 790.451C1041.11 799 1034.66 803.813 1045.46 808.139C1049.53 809.803 1053.91 809.572 1057.39 812.644C1060.44 815.357 1060.54 820.63 1064.2 822.166C1066.78 823.266 1073.34 820.118 1077.02 820.758C1081.48 821.521 1085.49 823.933 1088.26 827.516C1092.66 827.337 1094.81 821.373 1099.21 819.197C1103.34 817.197 1107.74 817.584 1111.89 816.535C1110.81 799.974 1121.74 790.635 1139.33 791.45C1142.06 791.578 1146.93 793.088 1149.36 792.116C1152.12 791.041 1153.76 786.485 1157.24 784.949C1163.77 782.057 1170.3 783.029 1174.27 788.328C1179.59 795.393 1175.65 797.953 1187.14 796.98C1196.46 796.212 1197.51 798.413 1205.24 801.485C1211.31 803.917 1214.92 800.871 1222.93 800.922C1232.14 800.973 1231.53 805.043 1238.08 808.038C1244.58 811.007 1254.7 804.403 1263.88 804.864C1272.92 805.325 1278.47 810.393 1281.95 818.098C1292.94 815.18 1305.84 816.281 1308.27 829.258C1314 823.678 1327.03 821.169 1334.99 820.069C1340.11 819.352 1345.72 822.219 1350.07 821.246C1356.93 819.736 1354.63 818.814 1360 813.618C1366.27 807.526 1374.59 799.949 1384.65 802.074C1396.63 804.583 1394.51 815.41 1399.96 822.321C1402.93 818.789 1406.26 814.539 1411.5 813.621C1421.41 811.88 1420.97 820.507 1428.5 823.121C1435.26 825.45 1449.98 821.176 1453.46 816.005C1455.74 812.605 1455.02 805.869 1457.3 801.824C1460.01 796.961 1463.37 794.554 1465.26 789.124C1466.85 784.593 1464.54 779.624 1466.8 775.224C1468.59 771.717 1473.63 769.234 1475.73 765.724C1489.58 766.134 1484.28 798.872 1506.5 798.924C1510.9 798.924 1515.64 795.315 1521.57 796.211C1525.93 796.877 1530.43 801.535 1533.4 801.868C1541.54 802.841 1550.04 794.112 1561.28 797.286C1564.94 798.335 1568.06 803.122 1571.8 804.172C1579.42 806.322 1577.33 803.942 1585.57 801.996C1591.02 800.775 1596.64 800.412 1602.21 800.921C1609.53 801.689 1610.27 805.196 1613.91 806.552C1624.38 810.468 1638.76 806.091 1646.77 815.357C1652.66 822.191 1651.71 833.736 1655.66 840.157C1659.03 845.712 1663.23 845.123 1663.85 853.852C1674.06 853.775 1675.49 854.697 1684.15 857.564C1694.21 860.864 1687.7 861.301 1698.53 855.516C1712.15 848.216 1721.9 847.734 1735.31 855.362C1744.76 846.962 1752.47 849.679 1761.92 854.108C1768.57 857.231 1764.55 858.332 1772.08 858.434C1776.05 858.485 1780.14 855.106 1785.23 855.234C1796.78 855.541 1802.77 864.5 1806.99 849.321C1809.55 840.08 1805.74 827.359 1822.15 829.048C1821.12 805.448 1842.5 808.775 1858.19 805.678C1867.35 803.886 1869.73 798.716 1879.87 803.502C1887.78 807.239 1890.29 815.174 1896.58 819.935C1903.85 811.718 1911.33 805.729 1919.98 806.445L1919.97 806.421Z" fill="url(#paint7_linear_404_15)"/>
</g>
<defs>
<radialGradient id="paint0_radial_404_15" cx="0" cy="0" r="1" gradientUnits="userSpaceOnUse" gradientTransform="translate(447.689 1.71755) scale(1379.03 659.248)">
<stop stop-color="white"/>
<stop offset="0.54" stop-color="#FDFDFD"/>
<stop offset="0.92" stop-color="#F2F2F2"/>
<stop offset="1" stop-color="#F0F0F0"/>
</radialGradient>
<linearGradient id="paint1_linear_404_15" x1="760.303" y1="363.246" x2="760.303" y2="984.341" gradientUnits="userSpaceOnUse">
<stop stop-color="white"/>
<stop offset="0.07" stop-color="#F9F9F9"/>
<stop offset="0.33" stop-color="#E8E8E8"/>
<stop offset="0.62" stop-color="#FDFDFD"/>
<stop offset="1" stop-color="#DCDCDC"/>
</linearGradient>
<linearGradient id="paint2_linear_404_15" x1="982.19" y1="657.903" x2="855.953" y2="761.225" gradientUnits="userSpaceOnUse">
<stop stop-color="#DCDCDC" stop-opacity="0"/>
<stop offset="1" stop-color="#DCDCDC"/>
</linearGradient>
<linearGradient id="paint3_linear_404_15" x1="502.04" y1="312.265" x2="502.04" y2="933.411" gradientUnits="userSpaceOnUse">
<stop stop-color="white"/>
<stop offset="0.02" stop-color="#FDFDFD"/>
<stop offset="0.33" stop-color="#EAEAEA"/>
<stop offset="0.65" stop-color="#FDFDFD"/>
<stop offset="1" stop-color="#DCDCDC"/>
</linearGradient>
<linearGradient id="paint4_linear_404_15" x1="649.861" y1="653.051" x2="505.047" y2="775.462" gradientUnits="userSpaceOnUse">
<stop stop-color="#DCDCDC" stop-opacity="0"/>
<stop offset="1" stop-color="#DCDCDC"/>
</linearGradient>
<linearGradient id="paint5_linear_404_15" x1="1271.42" y1="163.582" x2="1271.42" y2="874.699" gradientUnits="userSpaceOnUse">
<stop stop-color="white"/>
<stop offset="0.28" stop-color="#E8E8E8"/>
<stop offset="0.67" stop-color="#E1E1E1"/>
<stop offset="1" stop-color="#DCDCDC"/>
</linearGradient>
<linearGradient id="paint6_linear_404_15" x1="1691.28" y1="549.796" x2="1515.05" y2="631.592" gradientUnits="userSpaceOnUse">
<stop stop-color="#F0F0F0" stop-opacity="0"/>
<stop offset="0.23" stop-color="#E8E8E8" stop-opacity="0.212"/>
<stop offset="0.74" stop-color="#D3D3D3" stop-opacity="0.722"/>
<stop offset="1" stop-color="#C8C8C8"/>
</linearGradient>
<linearGradient id="paint7_linear_404_15" x1="960" y1="899" x2="960.081" y2="765.376" gradientUnits="userSpaceOnUse">
<stop stop-color="white"/>
<stop offset="1" stop-color="#DCDCDC"/>
</linearGradient>
<clipPath id="clip0_404_15">
<rect width="1920" height="899.288" fill="white"/>
</clipPath>
</defs>
</svg>
