<?xml version="1.0" encoding="UTF-8"?><svg id="Layer_2" xmlns="http://www.w3.org/2000/svg" viewBox="0 0 515.97 477.35"><defs><style>.cls-1{fill:#fff;}.cls-2{fill:#e01717;}.cls-3{fill:#085499;}</style></defs><g id="App_Icon_Kit_A"><g id="App_Icon_and_Badge_-_Main"><g><path class="cls-2" d="M515.95,150.17c.03,1.23,.03,2.47,0,3.72-.01,.73-.02,1.47-.05,2.21v.71c0,.33-.02,.65-.03,.98-.03,.66-.06,1.32-.1,1.99,0,.19-.02,.39-.03,.59v.07c-.02,.31-.03,.61-.06,.92-.05,.88-.11,1.77-.18,2.66-.19,2.45-.45,4.93-.76,7.43-.42,3.31-.95,6.66-1.59,10.05-.97,5.21-2.21,10.52-3.73,15.93-3.69,13.23-9.05,27.01-16.28,41.2-.26,.52-.53,1.03-.8,1.55-6.94,13.39-15.54,27.14-26,41.13-3.93,5.28-8.13,10.59-12.6,15.93-1.65,1.97-3.33,3.94-5.06,5.92-3.97,4.56-8.2,9.29-12.62,14.13-.04,.04-.08,.09-.12,.13-.34,.36-.67,.73-1.01,1.1-.22,.24-.45,.49-.67,.73-.53,.57-1.06,1.15-1.59,1.72-.31,.34-.62,.67-.93,1.01-.08,.09-.16,.17-.24,.26-.11,.11-.21,.23-.32,.34-.07,.08-.15,.16-.22,.24-.84,.9-1.69,1.81-2.55,2.73-.22,.24-.44,.47-.67,.71-1.99,2.14-4.03,4.29-6.09,6.46-5.83,6.14-11.88,12.39-18.09,18.7-2.52,2.56-5.06,5.12-7.63,7.7-5.96,5.98-12.03,12-18.15,17.98-9.48,9.28-19.05,18.48-28.47,27.41-12.96,12.27-25.62,24.01-37.35,34.69-5.49,5-10.78,9.76-15.8,14.23-5.41,4.83-10.52,9.32-15.22,13.4-4.48,3.9-8.61,7.43-12.29,10.52h-15.9c-11.32-9.18-26.67-22.21-44.04-37.48-5.11-4.5-10.39-9.18-15.8-14.02-6.55-5.86-13.28-11.94-20.1-18.17-9.2-8.41-18.57-17.09-27.87-25.86-4.46-4.2-8.9-8.42-13.3-12.64-6.06-5.81-12.04-11.62-17.88-17.37-.36-.36-.72-.71-1.07-1.06-.63-.62-1.27-1.25-1.9-1.88-6.51-6.44-12.83-12.82-18.87-19.04-1.16-1.19-2.31-2.39-3.45-3.57-.23-.24-.45-.47-.68-.71-.89-.91-1.76-1.82-2.61-2.73-.08-.08-.16-.16-.23-.24-.11-.11-.21-.23-.32-.34-.09-.09-.17-.17-.25-.26-.32-.34-.64-.67-.96-1.01-.55-.57-1.09-1.15-1.63-1.72-.23-.24-.46-.49-.69-.73-.35-.37-.69-.74-1.03-1.1-.04-.04-.08-.09-.12-.13-3.5-3.74-6.87-7.38-10.07-10.94-2.75-3.04-5.41-6.08-7.98-9.11-4.53-5.34-8.78-10.65-12.76-15.93-10.53-13.98-19.18-27.73-26.1-41.13-.27-.52-.54-1.03-.8-1.55-7.21-14.19-12.52-27.97-16.13-41.2-1.48-5.41-2.67-10.72-3.6-15.93-.61-3.4-1.1-6.75-1.48-10.05-.29-2.5-.52-4.98-.68-7.43-.07-.89-.12-1.78-.16-2.66-.01-.31-.03-.61-.04-.92v-.07c-.01-.2-.02-.4-.02-.59-.03-.67-.05-1.33-.06-1.99-.01-.33-.02-.65-.02-.98-.01-.24-.01-.48-.01-.71-.02-.74-.03-1.48-.03-2.21,0-1.25,.02-2.49,.05-3.72,.1-3.8,.36-7.51,.75-11.14,.87-7.36,2.21-14.7,4.02-21.96,1.18-4.77,2.56-9.5,4.14-14.16,2.77-8.23,6.14-16.27,10.07-23.97,2.89-5.67,6.08-11.16,9.56-16.42,1.19-1.8,2.42-3.57,3.68-5.32C49.59,33.18,73.18,14.63,101.57,6.92c11.95-2.97,23.92-4.78,35.45-4.83,2.66-.02,5.3,.04,7.92,.19,7.61,.42,15.05,1.56,22.4,3.45,8.63,2.21,17.12,5.45,25.57,9.74,5.27,2.67,10.53,5.73,15.8,9.22,6.58,4.35,13.18,9.35,19.85,15,6.64,6.12,27.47,28.66,28.79,37.29,1.29-7.14,15.1-23.89,23.59-33.08,1.83-1.98,3.41-3.61,4.57-4.72,3.57-3.12,7.11-6.06,10.65-8.8,5.27-4.09,10.53-7.76,15.8-11.01,10.54-6.5,21.11-11.33,31.91-14.53,7-2.09,14.1-3.5,21.35-4.23,3.12-.32,6.27-.52,9.45-.58h4.62c3.42,.06,6.86,.25,10.33,.58,7.34,.68,14.79,1.93,22.3,3.69,25.25,6.41,46.88,21.37,63.8,41.18,2.71,3.16,5.3,6.45,7.75,9.85,5.03,6.94,9.54,14.33,13.48,22.05,4.67,9.12,8.56,18.7,11.6,28.51,2.92,9.42,5.06,19.06,6.37,28.73,.63,5.01,.98,10.21,1.04,15.55h0Z"/><path class="cls-1" d="M376.35,0h.57l2.36,.03c3.42,.06,6.86,.25,10.33,.58,7.34,.68,14.79,1.93,22.3,3.69,25.25,6.41,46.88,21.37,63.8,41.18,2.71,3.16,5.3,6.45,7.75,9.85,5.03,6.94,9.54,14.33,13.48,22.05,4.67,9.12,8.56,18.7,11.6,28.51,2.92,9.42,5.06,19.06,6.37,28.73,.63,5.01,.98,10.21,1.04,15.55,.03,1.23,.03,2.47,0,3.72-.01,.73-.02,1.47-.05,2.21,0,.23,0,.47-.01,.71-.01,.33-.02,.65-.03,.98-.03,.66-.06,1.32-.1,1.99,0,.19-.02,.39-.03,.59v.07c-.02,.31-.03,.61-.06,.92-.05,.88-.11,1.77-.18,2.66-.19,2.45-.45,4.93-.76,7.43-.42,3.31-.95,6.66-1.59,10.05-.97,5.21-2.21,10.52-3.73,15.93-3.69,13.23-9.05,27.01-16.28,41.2-.26,.52-.53,1.03-.8,1.55H23.03c-.27-.52-.54-1.03-.8-1.55-7.21-14.19-12.52-27.97-16.13-41.2-1.48-5.41-2.67-10.72-3.6-15.93-.61-3.4-1.1-6.75-1.48-10.05-.29-2.5-.52-4.98-.68-7.43-.07-.89-.12-1.78-.16-2.66-.01-.31-.03-.61-.04-.92v-.07c-.01-.2-.02-.4-.02-.59-.03-.67-.05-1.33-.06-1.99-.01-.33-.02-.65-.02-.98-.01-.24-.01-.48-.01-.71-.02-.74-.03-1.48-.03-2.21,0-1.25,.02-2.49,.05-3.72,.1-3.8,.36-7.51,.75-11.14,.87-7.36,2.21-14.7,4.02-21.96,1.18-4.77,2.56-9.5,4.14-14.16,2.77-8.23,6.14-16.27,10.07-23.97,2.89-5.67,6.08-11.16,9.56-16.42,1.19-1.8,2.42-3.57,3.68-5.32C49.58,33.18,73.17,14.63,101.56,6.92c11.95-2.97,23.92-4.78,35.45-4.83,2.66-.02,5.3,.04,7.92,.19,7.61,.42,15.05,1.56,22.4,3.45,8.63,2.21,17.12,5.45,25.57,9.74,5.27,2.67,10.53,5.73,15.8,9.22,6.58,4.35,13.18,9.35,19.85,15,6.64,6.12,27.47,28.66,28.79,37.29,1.29-7.14,15.1-23.89,23.59-33.08,1.83-1.98,3.41-3.61,4.57-4.72,3.57-3.12,7.11-6.06,10.65-8.8,5.27-4.09,10.53-7.76,15.8-11.01,10.54-6.5,21.11-11.33,31.91-14.53,7-2.09,14.1-3.5,21.35-4.23,3.12-.32,6.27-.52,9.45-.58l1.69-.03h0Z"/><path class="cls-3" d="M263.85,239.73l-.6,.45-149.5,111.63c-.36-.36-.72-.71-1.07-1.06-.63-.62-1.27-1.25-1.9-1.88-6.51-6.44-12.83-12.82-18.87-19.04-1.16-1.19-2.31-2.39-3.45-3.57-.23-.24-.45-.47-.68-.71-.89-.91-1.76-1.82-2.61-2.73-.08-.08-.16-.16-.23-.24-.11-.11-.21-.23-.32-.34-.09-.09-.17-.17-.25-.26-.32-.34-.64-.67-.96-1.01-.55-.57-1.09-1.15-1.63-1.72-.23-.24-.46-.49-.69-.73-.35-.37-.69-.74-1.03-1.1-.04-.04-.08-.09-.12-.13-3.5-3.74-6.87-7.38-10.07-10.94-2.75-3.04-5.41-6.08-7.98-9.11-4.53-5.34-8.78-10.65-12.76-15.93-10.53-13.98-19.18-27.73-26.1-41.13-.27-.52-.54-1.03-.8-1.55-7.21-14.19-12.52-27.97-16.13-41.2-1.48-5.41-2.67-10.72-3.6-15.93-.61-3.4-1.1-6.75-1.48-10.05-.29-2.5-.52-4.98-.68-7.43-.07-.89-.12-1.78-.16-2.66-.01-.31-.03-.61-.04-.92v-.07c-.01-.2-.02-.4-.02-.59-.03-.67-.05-1.33-.06-1.99-.01-.33-.02-.65-.02-.98-.01-.24-.01-.48-.01-.71-.02-.74-.03-1.48-.03-2.21,0-1.25,.02-2.49,.05-3.72,.1-3.8,.36-7.51,.75-11.14,.87-7.36,2.21-14.7,4.02-21.96,1.18-4.77,2.56-9.5,4.14-14.16,2.77-8.23,6.14-16.27,10.07-23.97,2.89-5.67,6.08-11.16,9.56-16.42l235.26,177.21h0Z"/></g></g></g></svg>