<?xml version="1.0" encoding="UTF-8"?><svg id="Layer_1" xmlns="http://www.w3.org/2000/svg" viewBox="0 0 5059.26 3189.18"><defs><style>.cls-1{fill:#fff;}.cls-2{fill:#b3b3b3;}.cls-3{fill:#e01717;}.cls-4{fill:#085499;}</style></defs><rect class="cls-2" width="2239.68" height="1833"/><g><path class="cls-1" d="M5059.26,941.92v209.87c-357.94,39.25-959.95,85.16-1368.64,81-471-4.8-777.65-51.06-871.04-66.56v-97.97c66.92,10.51,383.02,55.85,887.95,60.99,326.53,3.32,897.56-96.64,1351.73-187.35Z"/><path class="cls-3" d="M5059.26,1114.88v211.8c-1217.56,85.06-2074.59-56.97-2239.68-87.45v-73.81l224.34,25.6,1144.94,12.68,870.41-88.82Z"/><path class="cls-4" d="M3753.94,1197.59c392.71-3.14,948.89-71.68,1305.31-125.92v127.91c-274.49,30.5-831.84,74.98-1294.6,70.27-482.72-4.91-844.27-60.42-945.08-77.56v-53.73c24.97,3.74,67.52,9.69,126.51,16.41,149.09,17.14,406.72,39.61,753.44,43.14,17.36,.19,35.53,0,54.42-.52Z"/></g><g><polygon class="cls-3" points="4805.91 1620.69 4617.04 1620.69 4428.18 1620.69 4428.18 1990.41 4617.04 1990.41 4805.91 1990.41 4999.57 1990.41 4999.57 1620.69 4805.91 1620.69"/><polygon class="cls-1" points="4805.91 1620.66 4617.04 1620.66 4428.52 1620.66 4428.52 1806.7 4617.04 1806.7 4805.91 1806.7 5000.59 1806.7 5000.59 1620.66 4805.91 1620.66"/><polygon class="cls-4" points="4675 1806.35 4428.52 1990.41 4428.52 1620.69 4675 1806.35 4675 1806.35"/></g><g><path class="cls-3" d="M3399.81,1591.26c.03,1.23,.03,2.47,0,3.72-.01,.73-.02,1.47-.05,2.21,0,.23,0,.47,0,.71,0,.33-.02,.65-.03,.98-.03,.66-.06,1.32-.1,1.99,0,.19-.02,.39-.03,.59v.07c-.02,.31-.03,.61-.06,.92-.05,.88-.11,1.77-.18,2.66-.19,2.45-.45,4.93-.76,7.43-.42,3.31-.95,6.66-1.59,10.05-.97,5.21-2.21,10.52-3.73,15.93-3.69,13.23-9.05,27.01-16.28,41.2-.26,.52-.53,1.03-.8,1.55-6.94,13.39-15.54,27.14-26,41.13-3.93,5.28-8.13,10.59-12.6,15.93-1.65,1.97-3.33,3.94-5.06,5.92-3.97,4.56-8.2,9.29-12.62,14.13-.04,.04-.08,.09-.12,.13-.34,.36-.67,.73-1.01,1.1-.22,.24-.45,.49-.67,.73-.53,.57-1.06,1.15-1.59,1.72-.31,.34-.62,.67-.93,1.01-.08,.09-.16,.17-.24,.26-.11,.11-.21,.23-.32,.34-.07,.08-.15,.16-.22,.24-.84,.9-1.69,1.81-2.55,2.73-.22,.24-.44,.47-.67,.71-1.99,2.14-4.03,4.29-6.09,6.46-5.83,6.14-11.88,12.39-18.09,18.7-2.52,2.56-5.06,5.12-7.63,7.7-5.96,5.98-12.03,12-18.15,17.98-9.48,9.28-19.05,18.48-28.47,27.41-12.96,12.27-25.62,24.01-37.35,34.69-5.49,5-10.78,9.76-15.8,14.23-5.41,4.83-10.52,9.32-15.22,13.4-4.48,3.9-8.61,7.43-12.29,10.52h-15.9c-11.32-9.18-26.67-22.21-44.04-37.48-5.11-4.5-10.39-9.18-15.8-14.02-6.55-5.86-13.28-11.94-20.1-18.17-9.2-8.41-18.57-17.09-27.87-25.86-4.46-4.2-8.9-8.42-13.3-12.64-6.06-5.81-12.04-11.62-17.88-17.37-.36-.36-.72-.71-1.07-1.06-.63-.62-1.27-1.25-1.9-1.88-6.51-6.44-12.83-12.82-18.87-19.04-1.16-1.19-2.31-2.39-3.45-3.57-.23-.24-.45-.47-.68-.71-.89-.91-1.76-1.82-2.61-2.73-.08-.08-.16-.16-.23-.24-.11-.11-.21-.23-.32-.34-.09-.09-.17-.17-.25-.26-.32-.34-.64-.67-.96-1.01-.55-.57-1.09-1.15-1.63-1.72-.23-.24-.46-.49-.69-.73-.35-.37-.69-.74-1.03-1.1-.04-.04-.08-.09-.12-.13-3.5-3.74-6.87-7.38-10.07-10.94-2.75-3.04-5.41-6.08-7.98-9.11-4.53-5.34-8.78-10.65-12.76-15.93-10.53-13.98-19.18-27.73-26.1-41.13-.27-.52-.54-1.03-.8-1.55-7.21-14.19-12.52-27.97-16.13-41.2-1.48-5.41-2.67-10.72-3.6-15.93-.61-3.4-1.1-6.75-1.48-10.05-.29-2.5-.52-4.98-.68-7.43-.07-.89-.12-1.78-.16-2.66-.01-.31-.03-.61-.04-.92v-.07c-.01-.2-.02-.4-.02-.59-.03-.67-.05-1.33-.06-1.99-.01-.33-.02-.65-.02-.98-.01-.24-.01-.48-.01-.71-.02-.74-.03-1.48-.03-2.21,0-1.25,.02-2.49,.05-3.72,.1-3.8,.36-7.51,.75-11.14,.87-7.36,2.21-14.7,4.02-21.96,1.18-4.77,2.56-9.5,4.14-14.16,2.77-8.23,6.14-16.27,10.07-23.97,2.89-5.67,6.08-11.16,9.56-16.42,1.19-1.8,2.42-3.57,3.68-5.32,17.31-24.02,40.9-42.57,69.29-50.28,11.95-2.97,23.92-4.78,35.45-4.83,2.66-.02,5.3,.04,7.92,.19,7.61,.42,15.05,1.56,22.4,3.45,8.63,2.21,17.12,5.45,25.57,9.74,5.27,2.67,10.53,5.73,15.8,9.22,6.58,4.35,13.18,9.35,19.85,15,6.64,6.12,27.47,28.66,28.79,37.29,1.29-7.14,15.1-23.89,23.59-33.08,1.83-1.98,3.41-3.61,4.57-4.72,3.57-3.12,7.11-6.06,10.65-8.8,5.27-4.09,10.53-7.76,15.8-11.01,10.54-6.5,21.11-11.33,31.91-14.53,7-2.09,14.1-3.5,21.35-4.23,3.12-.32,6.27-.52,9.45-.58h4.62c3.42,.06,6.86,.25,10.33,.58,7.34,.68,14.79,1.93,22.3,3.69,25.25,6.41,46.88,21.37,63.8,41.18,2.71,3.16,5.3,6.45,7.75,9.85,5.03,6.94,9.54,14.33,13.48,22.05,4.67,9.12,8.56,18.7,11.6,28.51,2.92,9.42,5.06,19.06,6.37,28.73,.63,5.01,.98,10.21,1.04,15.55Z"/><path class="cls-1" d="M3260.21,1441.09h.57l2.36,.03c3.42,.06,6.86,.25,10.33,.58,7.34,.68,14.79,1.93,22.3,3.69,25.25,6.41,46.88,21.37,63.8,41.18,2.71,3.16,5.3,6.45,7.75,9.85,5.03,6.94,9.54,14.33,13.48,22.05,4.67,9.12,8.56,18.7,11.6,28.51,2.92,9.42,5.06,19.06,6.37,28.73,.63,5.01,.98,10.21,1.04,15.55,.03,1.23,.03,2.47,0,3.72-.01,.73-.02,1.47-.05,2.21,0,.23,0,.47-.01,.71-.01,.33-.02,.65-.03,.98-.03,.66-.06,1.32-.1,1.99,0,.19-.02,.39-.03,.59v.07c-.02,.31-.03,.61-.06,.92-.05,.88-.11,1.77-.18,2.66-.19,2.45-.45,4.93-.76,7.43-.42,3.31-.95,6.66-1.59,10.05-.97,5.21-2.21,10.52-3.73,15.93-3.69,13.23-9.05,27.01-16.28,41.2-.26,.52-.53,1.03-.8,1.55h-469.3c-.27-.52-.54-1.03-.8-1.55-7.21-14.19-12.52-27.97-16.13-41.2-1.48-5.41-2.67-10.72-3.6-15.93-.61-3.4-1.1-6.75-1.48-10.05-.29-2.5-.52-4.98-.68-7.43-.07-.89-.12-1.78-.16-2.66-.01-.31-.03-.61-.04-.92v-.07c-.01-.2-.02-.4-.02-.59-.03-.67-.05-1.33-.06-1.99-.01-.33-.02-.65-.02-.98-.01-.24-.01-.48-.01-.71-.02-.74-.03-1.48-.03-2.21,0-1.25,.02-2.49,.05-3.72,.1-3.8,.36-7.51,.75-11.14,.87-7.36,2.21-14.7,4.02-21.96,1.18-4.77,2.56-9.5,4.14-14.16,2.77-8.23,6.14-16.27,10.07-23.97,2.89-5.67,6.08-11.16,9.56-16.42,1.19-1.8,2.42-3.57,3.68-5.32,17.31-24.02,40.9-42.57,69.29-50.28,11.95-2.97,23.92-4.78,35.45-4.83,2.66-.02,5.3,.04,7.92,.19,7.61,.42,15.05,1.56,22.4,3.45,8.63,2.21,17.12,5.45,25.57,9.74,5.27,2.67,10.53,5.73,15.8,9.22,6.58,4.35,13.18,9.35,19.85,15,6.64,6.12,27.47,28.66,28.79,37.29,1.29-7.14,15.1-23.89,23.59-33.08,1.83-1.98,3.41-3.61,4.57-4.72,3.57-3.12,7.11-6.06,10.65-8.8,5.27-4.09,10.53-7.76,15.8-11.01,10.54-6.5,21.11-11.33,31.91-14.53,7-2.09,14.1-3.5,21.35-4.23,3.12-.32,6.27-.52,9.45-.58l1.69-.03Z"/><path class="cls-4" d="M3147.71,1680.82l-.6,.45-149.5,111.63c-.36-.36-.72-.71-1.07-1.06-.63-.62-1.27-1.25-1.9-1.88-6.51-6.44-12.83-12.82-18.87-19.04-1.16-1.19-2.31-2.39-3.45-3.57-.23-.24-.45-.47-.68-.71-.89-.91-1.76-1.82-2.61-2.73-.08-.08-.16-.16-.23-.24-.11-.11-.21-.23-.32-.34-.09-.09-.17-.17-.25-.26-.32-.34-.64-.67-.96-1.01-.55-.57-1.09-1.15-1.63-1.72-.23-.24-.46-.49-.69-.73-.35-.37-.69-.74-1.03-1.1-.04-.04-.08-.09-.12-.13-3.5-3.74-6.87-7.38-10.07-10.94-2.75-3.04-5.41-6.08-7.98-9.11-4.53-5.34-8.78-10.65-12.76-15.93-10.53-13.98-19.18-27.73-26.1-41.13-.27-.52-.54-1.03-.8-1.55-7.21-14.19-12.52-27.97-16.13-41.2-1.48-5.41-2.67-10.72-3.6-15.93-.61-3.4-1.1-6.75-1.48-10.05-.29-2.5-.52-4.98-.68-7.43-.07-.89-.12-1.78-.16-2.66-.01-.31-.03-.61-.04-.92v-.07c-.01-.2-.02-.4-.02-.59-.03-.67-.05-1.33-.06-1.99-.01-.33-.02-.65-.02-.98-.01-.24-.01-.48-.01-.71-.02-.74-.03-1.48-.03-2.21,0-1.25,.02-2.49,.05-3.72,.1-3.8,.36-7.51,.75-11.14,.87-7.36,2.21-14.7,4.02-21.96,1.18-4.77,2.56-9.5,4.14-14.16,2.77-8.23,6.14-16.27,10.07-23.97,2.89-5.67,6.08-11.16,9.56-16.42l235.26,177.21Z"/></g><g><path class="cls-3" d="M3408.63,2359.99c0,147.35-119.45,266.79-266.79,266.79-77.9,0-148-33.38-196.76-86.63-43.5-47.47-70.03-110.71-70.03-180.16s27.11-134.07,71.43-181.7c48.72-52.35,118.22-85.09,195.36-85.09,147.34,0,266.79,119.45,266.79,266.79Z"/><path class="cls-1" d="M3408.63,2359.99h-533.58c0-70.2,27.11-134.07,71.43-181.7,48.72-52.35,118.22-85.09,195.36-85.09,147.34,0,266.79,119.45,266.79,266.79Z"/><path class="cls-4" d="M3187.02,2359.48l-.68,.51-241.26,180.16c-43.5-47.47-70.03-110.71-70.03-180.16s27.11-134.07,71.43-181.7l240.54,181.19Z"/></g><g><g><path class="cls-3" d="M4116.58,2235.51l-.33,66.85-.1,20.97h0l-.15,29.33-.13,26.63-.11,21.78-.08,16.69-.19,37.88-.13,27.33-1.21,13.03s-4.2,10.91-17.18,18.58c-7.53,4.45-18.02,7.82-32.36,7.34-14.69-.49-33.03-1.77-53.53-3.43-1.09-.09-2.2-.18-3.31-.27-3.54-.29-7.14-.59-10.79-.9-1.16-.1-2.33-.19-3.5-.29-5.77-.49-11.66-1-17.65-1.52-3.08-.27-6.19-.54-9.32-.81-3.13-.27-6.27-.55-9.44-.82-.39-.03-.78-.07-1.17-.1-3.11-.27-6.24-.54-9.38-.81-3.47-.3-6.95-.6-10.45-.89-3.32-.28-6.66-.56-10-.83-5.02-.42-10.06-.83-15.1-1.22-2.51-.2-5.03-.4-7.54-.59l-5.29-.4-2.24-.17c-2.5-.19-4.99-.37-7.48-.55-1.24-.09-2.49-.18-3.73-.26-1.24-.08-2.48-.17-3.72-.26-.83-.05-1.65-.11-2.48-.16-.34-.03-.68-.05-1.02-.07-2.15-.15-4.29-.29-6.43-.42-2.52-.17-5.04-.32-7.54-.47-1-.06-2-.12-2.99-.17-1.35-.08-2.69-.16-4.03-.23h-.06c-6.41-.36-12.72-.67-18.91-.92h-.06c-3.1-.13-6.17-.24-9.2-.34-1.49-.05-2.98-.1-4.46-.14-.76-.03-1.52-.05-2.28-.06-1.26-.04-2.5-.06-3.74-.08-.97-.02-1.94-.04-2.9-.06-.08,0-.16,0-.24,0-1.94-.03-3.85-.06-5.76-.07-.19-.01-.39-.01-.59-.01-.66,0-1.32,0-1.98,0-1.78-.01-3.55-.02-5.28-.02-.74,0-1.47,0-2.2,0-.71,0-1.42,0-2.12,.01-.37,0-.74,0-1.11,0-3.63,.04-7.16,.12-10.59,.23-.04,0-.08,.01-.12,0-.46,.02-.92,.03-1.37,.05-.45,0-.91,.03-1.36,.05-.09,0-.18,0-.28,0-.82,.04-1.64,.07-2.45,.11-.17,0-.33,0-.49,.02-.7,.04-1.39,.07-2.08,.11-1.71,.09-3.38,.19-5.03,.31-.92,.07-1.83,.14-2.73,.2-.9,.08-1.79,.15-2.67,.23-.66,.06-1.31,.13-1.95,.19-1.56,.16-3.08,.33-4.56,.51-.75,.08-1.48,.18-2.2,.28-.73,.1-1.44,.2-2.14,.3-.42,.06-.84,.12-1.25,.18-.07,0-.14,.02-.2,.03-.21,.04-.42,.07-.63,.11-.55,.08-1.09,.17-1.62,.26-.95,.17-1.87,.34-2.78,.52-.4,.07-.79,.15-1.17,.24-1.66,.34-3.24,.72-4.74,1.11h0l-.07,.04h-.02l-16.86,9.39h0l-.03,.02c-.1,.15-.19,.3-.28,.45-.08,.13-.14,.27-.21,.4-.14,.23-.25,.47-.35,.71-.07,.16-.14,.32-.19,.49-.06,.16-.12,.32-.17,.49l.05-1.76v-.14l.45-17.96s-.01-.89,0-2.58c0-.47,0-1,0-1.59,0-.44,0-.91,0-1.42,0-.76,0-1.59,0-2.49,0-.5,0-1.02,0-1.56,.02-2.39,.04-5.17,.06-8.31,0-.37,0-.75,0-1.13,0-.53,0-1.07,0-1.62,0-1.1,.02-2.24,.03-3.41,0-.58,0-1.18,0-1.78,0-.13,0-.26,0-.39,0-.78,.02-1.57,.02-2.38,0-.43,0-.86,0-1.3,0-.84,.02-1.69,.02-2.56,0-.43,0-.87,0-1.31,.01-.9,.02-1.81,.02-2.74,.02-2.41,.04-4.91,.06-7.49l.02-2.46,.04-5.2v-.44l.02-1.67v-1.24l.03-2.95v-.64c.11-13,.23-27.31,.35-42.04,.06-7.2,.12-14.49,.18-21.78,.07-8.95,.15-17.89,.22-26.63l.03-3.21c0-1.43,.02-2.86,.03-4.28l.02-2.65c.03-2.63,.05-5.23,.07-7.81l.11-13.42c.02-1.78,.03-3.53,.05-5.25l.06-7.02,.08-10.13,.03-3.78,.02-2,.03-3.88,.02-1.86,.02-2.71v-.88l.03-2.56,.19-21.96s2.54-6.6,9.79-13.15c.14-.14,.29-.27,.44-.4,7.51-6.6,19.87-13.01,39.31-12.36,.53,.02,1.07,.04,1.61,.06,1.19,.04,2.4,.09,3.64,.14,1.24,.05,2.5,.11,3.79,.18,1.49,.07,3.02,.16,4.57,.24,.52,.03,1.05,.06,1.58,.09,.59,.04,1.18,.07,1.78,.11,.95,.06,1.91,.12,2.88,.18,1.36,.08,2.75,.17,4.15,.27,.86,.06,1.73,.12,2.61,.18,2.84,.2,5.76,.41,8.74,.63,1.18,.09,2.38,.19,3.58,.28,7.68,.6,15.76,1.28,24.14,2.02,1.81,.16,3.63,.32,5.47,.48,3.67,.33,7.4,.66,11.18,1.01,2.05,.18,4.12,.37,6.19,.56,2.78,.26,5.58,.51,8.4,.77,3.11,.29,6.26,.58,9.42,.87,5.75,.53,11.58,1.07,17.44,1.6,15.98,1.46,32.27,2.9,48.38,4.18,9.03,.73,18.01,1.4,26.85,2.01,2.29,.16,4.57,.31,6.83,.46,7.11,.46,14.11,.87,20.96,1.21,1.09,.06,2.17,.11,3.25,.16,.8,.04,1.6,.08,2.4,.11,1.21,.06,2.42,.11,3.62,.16,2.6,.12,5.17,.21,7.71,.3,1.88,.07,3.75,.13,5.6,.18,.11,0,.23,0,.34,0,.54,0,1.07,.02,1.6,.04,1.09,.03,2.17,.06,3.24,.08,1.21,.03,2.41,.05,3.6,.07h.18c1.01,.02,2.02,.04,3.01,.05,1.17,0,2.33,.03,3.47,.03,.73,.01,1.45,.01,2.17,.01,1.71,0,3.4,0,5.06,0,.97,0,1.92-.01,2.87-.02,1.23,0,2.44-.03,3.63-.05,.93-.02,1.84-.03,2.75-.06,.27,0,.54,0,.82-.02,.75,0,1.49-.04,2.22-.06,1-.03,2-.06,2.97-.1,.82-.03,1.63-.07,2.44-.11,1.33-.06,2.63-.12,3.92-.19,2.63-.16,5.18-.34,7.64-.55,.48-.04,.96-.09,1.43-.13,.82-.07,1.63-.15,2.42-.24,1.6-.16,3.15-.34,4.65-.54,.76-.09,1.5-.19,2.23-.3,.54-.08,1.08-.16,1.61-.24,.28-.04,.55-.08,.82-.13,2.16-.34,4.22-.73,6.16-1.15,.52-.11,1.02-.22,1.52-.34,1.07-.25,2.09-.51,3.08-.79,.29-.07,.58-.16,.87-.24,.42-.12,.83-.25,1.24-.38,.38-.11,.75-.23,1.11-.36,.47-.16,.93-.32,1.39-.49,.9-.33,1.76-.68,2.57-1.04,.33-.15,.66-.3,.98-.45,.06-.03,.13-.06,.2-.1,.31-.15,.61-.3,.9-.46,.71-.37,1.38-.77,2-1.17,.34-.22,.67-.45,.98-.68,.03-.02,.05-.04,.07-.05,.27-.21,.53-.41,.78-.62,.22-.18,.43-.36,.63-.55,.2-.18,.39-.37,.58-.56,.14-.15,.28-.3,.42-.46,.05-.05,.1-.11,.15-.17,.15-.18,.3-.36,.44-.55,.2-.26,.38-.52,.54-.78,.1-.15,.19-.3,.28-.46,.1-.17,.2-.34,.28-.52,.08-.16,.15-.31,.21-.47,.07-.14,.12-.28,.17-.42,.08-.19,.14-.38,.2-.57Z"/><path class="cls-1" d="M4116.58,2235.51l-.33,66.85-.1,20.97h0l-.15,29.33-.13,26.63h-389.45c.07-8.95,.15-17.89,.22-26.63l.03-3.21c0-1.43,.02-2.86,.03-4.28l.02-2.65c.03-2.63,.05-5.23,.07-7.81l.11-13.42c.02-1.78,.03-3.53,.05-5.25l.06-7.02,.08-10.13,.03-3.78,.02-2,.03-3.88,.02-1.86,.02-2.71v-.88l.03-2.56,.19-21.96s2.54-6.6,9.79-13.15c.14-.14,.29-.27,.44-.4,7.51-6.6,19.87-13.01,39.31-12.36,.53,.02,1.07,.04,1.61,.06,1.19,.04,2.4,.09,3.64,.14,1.24,.05,2.5,.11,3.79,.18,1.49,.07,3.02,.16,4.57,.24,.52,.03,1.05,.06,1.58,.09,.59,.04,1.18,.07,1.78,.11,.95,.06,1.91,.12,2.88,.18,1.36,.08,2.75,.17,4.15,.27,.86,.06,1.73,.12,2.61,.18,2.84,.2,5.76,.41,8.74,.63,1.18,.09,2.38,.19,3.58,.28,7.68,.6,15.76,1.28,24.14,2.02,1.81,.16,3.63,.32,5.47,.48,3.67,.33,7.4,.66,11.18,1.01,2.05,.18,4.12,.37,6.19,.56,2.78,.26,5.58,.51,8.4,.77,3.11,.29,6.26,.58,9.42,.87,5.75,.53,11.58,1.07,17.44,1.6,15.98,1.46,32.27,2.9,48.38,4.18,9.03,.73,18.01,1.4,26.85,2.01,2.29,.16,4.57,.31,6.83,.46,7.11,.46,14.11,.87,20.96,1.21,1.09,.06,2.17,.11,3.25,.16,.8,.04,1.6,.08,2.4,.11,1.21,.06,2.42,.11,3.62,.16,2.6,.12,5.17,.21,7.71,.3,1.88,.07,3.75,.13,5.6,.18,.11,0,.23,0,.34,0,.54,0,1.07,.02,1.6,.04,1.09,.03,2.17,.06,3.24,.08,1.21,.03,2.41,.05,3.6,.07h.18c1.01,.02,2.02,.04,3.01,.05,1.17,0,2.33,.03,3.47,.03,.73,.01,1.45,.01,2.17,.01,1.71,0,3.4,0,5.06,0,.97,0,1.92-.01,2.87-.02,1.23,0,2.44-.03,3.63-.05,.93-.02,1.84-.03,2.75-.06,.27,0,.54,0,.82-.02,.75,0,1.49-.04,2.22-.06,1-.03,2-.06,2.97-.1,.82-.03,1.63-.07,2.44-.11,1.33-.06,2.63-.12,3.92-.19,2.63-.16,5.18-.34,7.64-.55,.48-.04,.96-.09,1.43-.13,.82-.07,1.63-.15,2.42-.24,1.6-.16,3.15-.34,4.65-.54,.76-.09,1.5-.19,2.23-.3,.54-.08,1.08-.16,1.61-.24,.28-.04,.55-.08,.82-.13,2.16-.34,4.22-.73,6.16-1.15,.52-.11,1.02-.22,1.52-.34,1.07-.25,2.09-.51,3.08-.79,.29-.07,.58-.16,.87-.24,.42-.12,.83-.25,1.24-.38,.38-.11,.75-.23,1.11-.36,.47-.16,.93-.32,1.39-.49,.9-.33,1.76-.68,2.57-1.04,.33-.15,.66-.3,.98-.45,.06-.03,.13-.06,.2-.1,.31-.15,.61-.3,.9-.46,.71-.37,1.38-.77,2-1.17,.34-.22,.67-.45,.98-.68,.03-.02,.05-.04,.07-.05,.27-.21,.53-.41,.78-.62,.22-.18,.43-.36,.63-.55,.2-.18,.39-.37,.58-.56,.14-.15,.28-.3,.42-.46,.05-.05,.1-.11,.15-.17,.15-.18,.3-.36,.44-.55,.2-.26,.38-.52,.54-.78,.1-.15,.19-.3,.28-.46,.1-.17,.2-.34,.28-.52,.08-.16,.15-.31,.21-.47,.07-.14,.12-.28,.17-.42,.08-.19,.14-.38,.2-.57Z"/><path class="cls-4" d="M3913.65,2379.01l-.37,.28-6.04,4.51-.1,.07-.11,.08-22.92,17.12-10.12,7.56-.15,.11-.13,.1-148.68,111.03v-.14l.45-17.96s-.01-.89,0-2.58c0-.47,0-1,0-1.59,0-.44,0-.91,0-1.42,0-.76,0-1.59,0-2.49,0-.5,0-1.02,0-1.56,.02-2.39,.04-5.17,.06-8.31,0-.37,0-.75,0-1.13,0-.53,0-1.07,0-1.62,0-1.1,.02-2.24,.03-3.41,0-.58,0-1.18,0-1.78,0-.13,0-.26,0-.39,0-.78,.02-1.57,.02-2.38,0-.43,0-.86,0-1.3,0-.84,.02-1.69,.02-2.56,0-.43,0-.87,0-1.31,.01-.9,.02-1.81,.02-2.74,.02-2.41,.04-4.91,.06-7.49l.02-2.46,.04-5.2v-.44l.02-1.67v-1.24l.03-2.95v-.64c.11-13,.23-27.31,.35-42.04,.06-7.2,.12-14.49,.18-21.78,.07-8.95,.15-17.89,.22-26.63l.03-3.21c0-1.43,.02-2.86,.03-4.28l.02-2.65c.03-2.63,.05-5.23,.07-7.81l.11-13.42c.02-1.78,.03-3.53,.05-5.25l.06-7.02,.08-10.13,.03-3.78,.02-2,.03-3.88,.02-1.86,.02-2.71v-.88l.03-2.56,.19-21.96s2.54-6.6,9.79-13.15l131.13,98.78,.14,.1,.14,.11,10.04,7.56,28.2,21.24,.1,.08,.11,.08,6.57,4.95Z"/></g><g><rect x="3486.71" y="2473.26" width="489.82" height="11.79" transform="translate(1243.8 6205.01) rotate(-89.87)"/><path d="M3742.02,2228.97c-.01,5.75-4.69,10.41-10.44,10.39-5.75-.01-10.4-4.69-10.39-10.44,.01-5.75,4.69-10.41,10.44-10.39,5.75,.02,10.41,4.69,10.39,10.44Z"/></g></g><g><path class="cls-3" d="M4994.98,2322.13v274.26s-60.91-21.71-138.47-36.43c-2.77-.52-5.58-1.05-8.44-1.58-5.67-1.01-11.38-1.98-17.18-2.9-5.8-.97-11.69-1.85-17.58-2.64-2.29-.3-4.62-.61-6.9-.92-1.98-.26-3.91-.48-5.89-.75-3.91-.48-7.87-.92-11.82-1.31-.75-.09-1.45-.14-2.2-.22-19.03-1.94-38.27-3.08-57.21-3.08-109.51,0-231.96,29.36-261.87,36.97-4.46,1.14-6.86,1.79-6.86,1.79v-263.19s16.55-17,52.89-35.39c42.77-21.63,112.97-45.2,215.84-45.2,18.94,0,36.73,.79,53.39,2.24,16.65,1.45,32.25,3.51,46.8,6.11,.32,.06,.64,.11,.95,.17,1.67,.3,3.33,.6,4.97,.91,.47,.09,.94,.17,1.41,.27,.82,.15,1.63,.31,2.44,.48,.77,.14,1.52,.29,2.28,.45,.81,.16,1.62,.32,2.42,.49,1.18,.24,2.35,.49,3.51,.74,1.17,.24,2.32,.49,3.47,.75,.17,0,.3,.04,.44,.09,1.28,.29,2.55,.59,3.81,.89,.85,.2,1.69,.4,2.53,.6,2.23,.53,4.44,1.08,6.62,1.63,4.35,1.1,8.61,2.24,12.7,3.42,1.02,.31,2.04,.6,3.04,.91h.02c1.01,.3,2.01,.6,3,.9,2.55,.79,5.06,1.58,7.52,2.37,2.68,.88,5.27,1.76,7.82,2.64,67.5,23.51,96.55,54.53,96.55,54.53Z"/><path class="cls-1" d="M4994.98,2322.13v96.74h-534.42v-96.74s16.55-17,52.89-35.39c42.77-21.63,112.97-45.2,215.84-45.2,18.94,0,36.73,.79,53.39,2.24,16.65,1.45,32.25,3.51,46.8,6.11,.32,.06,.64,.11,.95,.17,1.67,.3,3.33,.6,4.97,.91,.47,.09,.94,.17,1.41,.27,.82,.15,1.63,.31,2.44,.48,.77,.14,1.52,.29,2.28,.45,.81,.16,1.62,.32,2.42,.49,1.18,.24,2.35,.49,3.51,.74,1.17,.24,2.32,.49,3.47,.75,.17,0,.3,.04,.44,.09,1.28,.29,2.55,.59,3.81,.89,.85,.2,1.69,.4,2.53,.6,2.23,.53,4.44,1.08,6.62,1.63,4.35,1.1,8.61,2.24,12.7,3.42,1.02,.31,2.04,.6,3.04,.91h.02c1.01,.3,2.01,.6,3,.9,2.55,.79,5.06,1.58,7.52,2.37,2.68,.88,5.27,1.76,7.82,2.64,67.5,23.51,96.55,54.53,96.55,54.53Z"/><path class="cls-4" d="M4688.39,2418.52l-.47,.35-29.92,22.34-190.58,142.32c-4.46,1.14-6.86,1.79-6.86,1.79v-263.19s16.55-17,52.89-35.39l115.31,86.86,59.63,44.92Z"/></g><g><path class="cls-3" d="M1702.85,3015.79l.53,.4-149.17,111.39c1.58,4.55,4.06,5.82,7.72,6.93,3.96,1.2,.34-3.1,3.1-2.93,2.75,.17,11.18,11.53,12.56,13.59,1.38,2.07,5.33-1.03,5.51,1.03,.17,2.06,1.55,5.68,4.47,6.71,2.92,1.03,1.72,3.1,2.06,5.68,.34,2.58,16.69,10.5,17.89,11.01,1.2,.52,4.47,4.99,4.3,7.23-.17,2.24-12.39,2.93,10.67,8.78,23.06,5.85,23.57,2.93,25.47,2.07,1.89-.86,2.41-6.19,3.79-7.74,1.38-1.55,5.85,1.38,7.57,3.61,1.72,2.24,1.55-1.03,4.3-1.55,2.75-.52,5.16,4.82,8.6,4.65,3.44-.17,3.44-8.43,3.44-10.5s4.13-3.79,5.51-5.33c1.38-1.55,1.03-2.07,1.38-6.71,.34-4.65,2.24-2.24,4.3-3.1,2.06-.86,7.74,2.24,10.52,1.89,2.78-.34,.32-6.54,.02-9.98-.3-3.44,3.4-2.92,3.75-6.02,.34-3.1-2.06-10.15-3.44-12.04-1.38-1.89,2.24-3.79,4.47-5.33,2.24-1.55,6.37,.34,8.43,1.2,2.07,.86,2.24,.52,4.13-.52,1.89-1.03,2.93,1.55,3.1,2.93,.17,1.38-3.1,4.65-3.1,4.65,8.43,1.72,8.26,.17,11.78-3.44,3.52-3.61,7.32,1.38,11.62,1.72,4.3,.34,8.78,3.61,11.53,5.33,2.75,1.72,6.37,2.24,8.95,3.1,2.58,.86,3.96,2.58,7.05,4.99,3.1,2.41,8.95-2.41,11.01-1.2,2.06,1.2,8.43,4.47,10.32,4.47s2.58,4.99,2.58,4.99c8.09,7.23,27.19,7.74,36.13,8.26,8.95,.52,7.92-5.33,12.22-9.12,4.3-3.79,14.63,4.65,16,4.82,1.38,.17,2.58,5.68,2.92,6.88,.34,1.2,7.74-1.03,8.78-1.03s1.55,1.89,5.85,1.89,5.68-1.03,7.74,2.06c2.06,3.1-2.06,10.5,2.93,11.18,4.99,.69,4.99-8.43,5.16-10.67,.17-2.24,1.2-4.65,3.44-7.05,2.24-2.41,6.02-4.82,7.92-8.26,1.89-3.44,6.02-7.4,8.6-8.26,2.58-.86,9.29,4.82,11.87,5.94,2.58,1.12,5.51-2.32,6.88-3.36,1.38-1.03,2.92-.17,6.71,2.41,3.79,2.58,9.12-.69,13.94-2.92,4.82-2.24,10.67-4.99,12.04-7.92s3.79-3.96,4.82-3.79c1.03,.17,4.82-.52,7.05-3.61,2.24-3.1,.69-7.05,1.89-9.64,1.2-2.58,4.82-1.55,7.92-1.2,3.1,.34,5.68-.17,7.74-4.65,2.06-4.47,1.55-11.18,2.41-16.52,.86-5.33,4.82-11.7,7.23-15.83,2.41-4.13,6.88-3.1,9.98-4.13,3.1-1.03,8.6-8.77,9.81-9.46,1.2-.69,4.82-10.5,8.26-16.52,3.44-6.02,16.17-1.89,17.03-1.2,.86,.69,1.03,.52,3.61-2.24,2.58-2.75,.86-1.2,5.51-2.41,4.65-1.2-2.06-16.35-2.06-18.58s-5.68-9.12-10.15-10.32c-3.06-.82-6.27-3.57-8.49-6.71h-328.42Z"/><path class="cls-1" d="M2028.93,2998.93c-.17-.86-11.01-3.96-13.42-5.16-2.41-1.2-6.19,1.55-9.81,2.58-3.61,1.03-5.85-.86-7.57-2.24-1.72-1.38-5.33-5.85-6.71-5.71-1.38,.14-4.47,1.07-5.16,1.75s-4.82-7.74-6.02-9.64c-1.2-1.89-2.93-1.2-4.47-.86-1.55,.34,1.03,3.44,2.75,4.82s-16.35,5.33-20.13,3.92c-3.79-1.41-6.37-9.26-7.74-13.04-1.38-3.79-3.1-2.58-6.54-2.93-3.44-.34-6.19-4.3-5.16-8.26s7.91-1.89,11.53-3.1,1.03-6.88,0-10.15c-1.03-3.27-2.58-8.78-4.3-8.95-1.72-.17-2.24,5.16-2.75,7.4-.52,2.24-8.09-.52-11.87-1.03-3.79-.52-6.19,4.13-10.15,4.65-3.96,.52-8.26-5.33-9.29-7.4-1.03-2.07-2.58-2.07-5.85-3.1-3.27-1.03-4.47-4.13-4.47-4.13-1.72-3.61-2.58-4.13-5.85-4.47-3.27-.34-6.19-1.55-7.57-3.1-1.38-1.55-4.82-.17-7.92-.17s-7.92-2.07-10.84-.52c-2.92,1.55,3.79,8.43,4.65,12.04,.86,3.61,9.81,10.67,9.98,12.56,.17,1.89-.86,2.58-2.93,2.58s-2.93,2.58-4.47,4.3c-1.55,1.72-7.57,.69-11.01,1.38-3.44,.69-2.07,1.38-4.13,5.16-2.06,3.79,0,4.99-6.88,6.19-6.88,1.2-11.01-4.47-11.53-9.29-.52-4.82-3.96-9.64-6.02-14.11-2.07-4.47-1.72-1.89-5.73-4.47-4.01-2.58-3.38-1.55-5.62-5.33-2.24-3.79-1.72-3.1-2.41-3.79-.69-.69-2.93,0-4.99,0s-2.41-.69-3.61-2.58c-1.2-1.89-2.06-2.24-3.44-2.24s-.69-2.58-.52-4.47c.17-1.89,6.88-4.99,8.26-6.37,1.38-1.38,3.79-1.55,5.16-1.55s2.06-3.79,3.1-5.16c1.03-1.38,6.88-3.61,2.41-11.7-4.47-8.08-13.59-5.51-15.66-5.34-2.06,.17,0,0-1.03,2.92-1.03,2.93-8.77-2.06-11.87-2.58-3.1-.52-6.54,4.82-7.57,4.99-1.03,.17-1.72-5.68-1.89-8.53-.17-2.85-4.47-2.65-8.95-.76-4.47,1.89-5.16,0-6.37-2.93-1.2-2.93-3.27-3.27-4.65-4.82-1.38-1.55-3.1,1.38-6.02,1.38s-2.41-1.2-3.1-2.75c-.69-1.55-1.55-1.55-4.13-1.55s-4.3-2.58-4.99-2.58-3.96-2.06-4.99-1.38c-1.03,.69-3.27-2.24-5.51-3.27-2.24-1.03-4.47,3.27-7.05,3.27s-1.89-4.3-1.89-6.71-1.2-3.1-4.82-4.99c-3.61-1.89-2.75-5.51-2.75-5.51-.34-3.04,1.55-3.61,1.03-5.68-.52-2.06-3.79-3.96-6.19-3.79-2.41,.17-4.3-3.61-5.33-4.3-1.03-.69-2.58,2.58-3.79,4.13-1.2,1.55-3.61-3.27-5.16-4.82-1.55-1.55-7.05,2.58-7.91,5.33-.86,2.75,4.13,2.75,3.1,5.51-1.03,2.75,0,.86-.34,5.85-.34,4.99-9.98,6.19-12.39,6.37-2.41,.17-3.27,.69-5.85,3.1-2.58,2.41-8.43-1.72-11.87-2.06-3.44-.34-1.38-9.81-2.06-11.36-.69-1.55,0,0-3.27,1.72-3.27,1.72-2.41-1.72-2.93-3.44-.52-1.72,1.89-6.71,1.89-8.78s-2.93-3.1-4.99-2.93c-2.06,.17-1.38-4.47-3.79-5.34-2.41-.86-3.96,1.9-6.02,3.27-2.06,1.38-5.16-1.2-6.54-2.24-1.38-1.03-5.33,1.89-9.98,6.19-4.65,4.3,0,2.06,3.27,2.24,3.27,.17,.52,1.55,4.13,3.79,3.61,2.24,7.05,4.3,6.71,7.23-.34,2.93-9.81,3.1-11.53,3.27-1.72,.17-10.5,7.05-14.11,7.74-3.61,.69-14.28,3.96-17.03,4.82-2.75,.86-2.75,5.85-4.3,8.78-1.55,2.93-19.96-.52-23.06-1.03-3.1-.52-8.43,5.16-8.43,7.57s-4.47,7.4-6.71,9.12c-2.24,1.72-8.95-2.58-10.67-2.58-.64,0-1.07,.64-1.41,1.58l151.79,114.28h328.42c-1.03-1-1.86-2.94-2.35-4.42-1.55-4.65,.17-11.47,0-12.33Z"/><path class="cls-4" d="M1702.85,3015.79l-151.79-114.33c-.58,1.6-.93,3.93-1.69,4.9-1.2,1.55-2.41,.69-5.33-.52-2.92-1.2-4.13,4.13-5.68,7.23-1.55,3.1-7.91,1.89-11.36,2.58-3.44,.69-6.19,8.26-7.57,11.87-1.38,3.61-4.13-2.24-11.36-5.16-7.23-2.93-16,5.33-18.07,7.05-2.06,1.72-9.29,0-11.87,1.89-2.58,1.89-5.85,4.99-8.95,6.37-3.1,1.38-3.96,1.03-3.79,4.65,.17,3.61-2.75,7.57-4.65,9.64-1.89,2.06-1.2,4.3-.34,5.16,.86,.86,1.03,5.51-.52,7.23-1.55,1.72-3.61-4.3-3.1-8.43s-1.03-.52-1.89-3.79c-.86-3.27-2.06-2.75-3.79-3.27-1.72-.52-2.06-2.93-2.58-6.71-.52-3.79-6.02-4.13-7.92-4.13s-.34,3.79,.86,6.37c1.2,2.58-1.38,1.55-2.93,3.79-1.55,2.24,1.89,3.61,6.02,6.19,4.13,2.58,2.58,7.05,4.65,14.11,2.06,7.05,8.95,10.5,11.36,13.59,2.41,3.1,11.7,5.33,11.87,7.74,.17,2.41,1.03,6.19,2.58,7.92,1.55,1.72-.17,6.88-1.03,7.92-.86,1.03-2.75,5.33-3.27,9.12-.52,3.79-5.68,3.27-6.88,5.16-1.2,1.89,3.61,4.99,6.02,7.92,2.41,2.93,.17,3.96,2.41,4.99,2.24,1.03,1.03-.34,.86,2.24-.17,2.58,4.13,10.84,6.19,14.11,2.06,3.27,4.65,7.74,4.3,11.18-.34,3.44,1.89,6.71,7.4,8.43,5.51,1.72,2.75,9.12,8.6,12.04,5.85,2.93,9.81-.34,12.22-1.03,2.41-.69,5.68,5.16,6.71,7.91,1.03,2.75,5.68,7.92,7.4,8.95s6.37,7.74,6.71,11.53c.34,3.79,11.53,7.23,14.45,7.74,2.93,.52,5.16,4.99,6.71,10.5,.12,.41,.24,.79,.37,1.16l149.17-111.39-.53-.4Z"/></g></svg>