<?xml version="1.0" encoding="UTF-8"?><svg xmlns="http://www.w3.org/2000/svg" xmlns:xlink="http://www.w3.org/1999/xlink" viewBox="0 0 750.07 350.47"><defs><style>.cls-1{fill:url(#linear-gradient-7);}.cls-1,.cls-2,.cls-3{mix-blend-mode:multiply;opacity:.5;}.cls-2{fill:url(#linear-gradient-5);}.cls-3{fill:url(#linear-gradient-3);}.cls-4{fill:url(#linear-gradient-8);}.cls-5{fill:url(#linear-gradient-4);}.cls-6{fill:url(#linear-gradient-2);}.cls-7{fill:url(#linear-gradient-6);}.cls-8{fill:url(#radial-gradient);}.cls-9{isolation:isolate;}.cls-10{fill:url(#linear-gradient);mix-blend-mode:screen;}</style><radialGradient id="radial-gradient" cx="374" cy="2.14" fx="374" fy="2.14" r="538.37" gradientTransform="translate(0 .37) scale(1 .48)" gradientUnits="userSpaceOnUse"><stop offset="0" stop-color="#fff"/><stop offset=".54" stop-color="#fcfcfc"/><stop offset=".92" stop-color="#f2f2f2"/><stop offset="1" stop-color="#f0f0f0"/></radialGradient><linearGradient id="linear-gradient" x1="375.07" y1="106.68" x2="375.07" y2="328.57" gradientTransform="matrix(1, 0, 0, 1, 0, 0)" gradientUnits="userSpaceOnUse"><stop offset="0" stop-color="#c8c8c8"/><stop offset="1" stop-color="#c8c8c8"/></linearGradient><linearGradient id="linear-gradient-2" x1="297.02" y1="141.19" x2="297.02" y2="383.8" gradientTransform="matrix(1, 0, 0, 1, 0, 0)" gradientUnits="userSpaceOnUse"><stop offset="0" stop-color="#fff"/><stop offset=".07" stop-color="#f9f9f9"/><stop offset=".33" stop-color="#e8e8e8"/><stop offset=".62" stop-color="#dfdfdf"/><stop offset="1" stop-color="#dcdcdc"/></linearGradient><linearGradient id="linear-gradient-3" x1="383.78" y1="256.25" x2="328.52" y2="289.54" gradientTransform="matrix(1, 0, 0, 1, 0, 0)" gradientUnits="userSpaceOnUse"><stop offset="0" stop-color="#dcdcdc" stop-opacity="0"/><stop offset="1" stop-color="#dcdcdc"/></linearGradient><linearGradient id="linear-gradient-4" x1="196.13" y1="121.22" x2="196.13" y2="363.82" gradientTransform="matrix(1, 0, 0, 1, 0, 0)" gradientUnits="userSpaceOnUse"><stop offset="0" stop-color="#fff"/><stop offset=".02" stop-color="#fdfdfd"/><stop offset=".33" stop-color="#eaeaea"/><stop offset=".65" stop-color="#dfdfdf"/><stop offset="1" stop-color="#dcdcdc"/></linearGradient><linearGradient id="linear-gradient-5" x1="253.96" y1="254.32" x2="185.38" y2="288.27" gradientTransform="matrix(1, 0, 0, 1, 0, 0)" gradientUnits="userSpaceOnUse"><stop offset="0" stop-color="#dcdcdc" stop-opacity="0"/><stop offset="1" stop-color="#dcdcdc"/></linearGradient><linearGradient id="linear-gradient-6" x1="496.7" y1="63.96" x2="496.7" y2="340.93" gradientTransform="matrix(1, 0, 0, 1, 0, 0)" gradientUnits="userSpaceOnUse"><stop offset="0" stop-color="#fff"/><stop offset=".28" stop-color="#efefef"/><stop offset=".67" stop-color="#e1e1e1"/><stop offset="1" stop-color="#dcdcdc"/></linearGradient><linearGradient id="linear-gradient-7" x1="660.63" y1="214.38" x2="595.39" y2="253.66" gradientTransform="matrix(1, 0, 0, 1, 0, 0)" gradientUnits="userSpaceOnUse"><stop offset="0" stop-color="#f0f0f0" stop-opacity="0"/><stop offset=".23" stop-color="#e7e7e7" stop-opacity=".21"/><stop offset=".74" stop-color="#d3d3d3" stop-opacity=".72"/><stop offset="1" stop-color="#c8c8c8"/></linearGradient><linearGradient id="linear-gradient-8" x1="375.07" y1="364.56" x2="375.07" y2="297.52" gradientTransform="matrix(1, 0, 0, 1, 0, 0)" gradientUnits="userSpaceOnUse"><stop offset="0" stop-color="#f7f7f7"/><stop offset="0" stop-color="#f7f7f7"/><stop offset="0" stop-color="#f7f7f7"/><stop offset="1" stop-color="#dcdcdc"/></linearGradient></defs><g class="cls-9"><g id="BACKGROUND"><rect id="background" class="cls-8" width="750" height="350"/></g><g id="mountains"><path id="cloud" class="cls-10" d="M750.07,138.24v212.23H.07V145.81c5.05-5.19,14.01-8.64,24.22-8.64,12.17,0,22.55,4.9,26.68,11.8,5.01-1.65,10.67-2.58,16.68-2.58,3.15,0,6.2,.25,9.11,.73,1.01-7.09,10.26-12.64,21.52-12.64,1.57,0,3.09,.11,4.55,.31,4.15-8.73,16.74-15.07,31.64-15.07,13.08,0,24.38,4.89,29.75,11.99,4.37-2.48,10.09-3.98,16.37-3.98,.75,0,1.49,.02,2.22,.06-1.41-1.73-2.22-3.7-2.22-5.79,0-6.89,8.67-12.48,19.36-12.48,1.47,0,2.9,.12,4.28,.32,8.03-10.47,24.76-17.66,44.11-17.66,25.48,0,46.43,12.48,48.95,28.47,5.1,.33,9.85,1.43,13.98,3.11,4.76-5.21,13.55-8.7,23.61-8.7,6.66,0,12.76,1.53,17.51,4.08,8.86-4.94,20.41-7.93,33.05-7.93,26.87,0,48.83,13.51,50.46,30.55,1.73-.21,3.52-.33,5.35-.33,4.96,0,9.61,.83,13.66,2.28,3.66-5.07,11.63-8.58,20.87-8.58,12.68,0,22.97,6.61,23.02,14.77,4.47-1.46,9.52-2.29,14.88-2.29,17.23,0,31.36,8.55,32.76,19.42,2.79-.44,5.7-.68,8.7-.68,10.2,0,19.41,2.73,26,7.1,4.95-5.76,13.66-9.99,24-11.31-.6-1.16-.94-2.39-.94-3.68,0-6.39,8.04-11.58,17.96-11.58,2.9,0,5.63,.46,8.06,1.24,4.92-7.98,17-13.64,31.15-13.64,5.77,0,11.21,.94,15.95,2.6,8.32-6.81,21.21-11.19,35.7-11.19,15.3,0,28.83,4.88,37.05,12.34Z"/><path id="mountain2" class="cls-6" d="M457.8,340.74H136.25s125.6-135.93,138.79-148.88c1.93-1.9,3.92-2.74,5.94-2.77,11.77-.18,24.69,26.6,34.31,25.92,11.28-.82,7.68-27.88,51.1,21.8,38.18,43.7,91.41,103.93,91.41,103.93Z"/><path id="mountain2_shadow" class="cls-3" d="M457.8,340.74h-92.54c-14.31-28.9-48.47-96.97-55.28-101.68-8.65-5.99-11.98-16.98-19.97-35.62-3.18-7.42-6.36-11.77-9.04-14.34,11.77-.18,24.69,26.6,34.31,25.92,11.28-.82,7.68-27.88,51.1,21.8,38.18,43.7,91.41,103.93,91.41,103.93Z"/><path id="mountain1" class="cls-5" d="M.07,341.44H392.2c-45.16-21.62-156.12-108.58-165.25-118.18-9.13-9.61-20.18-15.37-32.19-25.94-12.01-10.58-38.25-39.94-46.7-44-.96-.47-1.92-.7-2.88-.72-7.41-.15-15.12,12.27-32.27,25.04-19.36,14.41-30.84,13.91-51.23,36.01-8.42,9.13-34.23,32.52-61.62,56.83v70.96Z"/><path id="mointain1_shadow" class="cls-2" d="M392.2,341.44H233.38c-10.5-19.25-27.26-50.16-33.77-63.15-9.81-19.53-8.14-27.68-30.54-61.78-15.08-22.96-21.37-49.21-23.88-63.91,.96,.02,1.92,.25,2.88,.72,8.45,4.06,34.68,33.43,46.7,44,12,10.57,23.06,16.33,32.19,25.94,9.13,9.61,120.09,96.56,165.25,118.18Z"/><path id="mountain3" class="cls-7" d="M750.07,299.75c-33.64-29.85-72.55-64.35-87.41-77.45-28.34-24.98-31.82-38.05-52.84-51.88-12.21-8.04-24.84-20.03-32.68-27.99-4.54-4.62-8.2-9.99-11.68-15.45-10.8-16.9-17.63-22.76-23.66-21.96-7.43,.98-13.66,12.06-24.66,25.05-13.97,16.51-16.57,17.49-24.58,22.94-23.02,15.67-53.58,60.59-72.05,62.59-17.18,1.86-20.14-.98-35.51,5.27-9.91,4.01-113.02,95.91-141.67,120.58h506.74v-41.69Z"/><path id="mountain3_shadow" class="cls-1" d="M750.07,299.75c-33.64-29.85-72.55-64.35-87.41-77.45-28.34-24.98-31.82-38.05-52.84-51.88-12.21-8.04-24.84-20.03-32.68-27.99-4.54-4.62-8.2-9.99-11.68-15.45-10.8-16.9-17.63-22.76-23.66-21.96,3.57,5.44,9.65,16.81,14.18,36.15,6.83,29.11,3.24,43.2,31.65,81.69,22.28,30.17,51.41,92.9,62.95,118.58h99.5v-41.69Z"/><path id="forrest" class="cls-4" d="M750.07,313.52v36.28H.07v-80.68c.87-.21,1.87-.56,2.69-.51,3.01,.18,4.29,2.35,6,4.35,3.42-3.62,10.82-3.15,15-.89,4.03,2.16,6.37,9,11.34,8.25,2.6-.4,3.82-2.55,7-1.87,2.23,.47,3.64,2.98,5.57,3.47,2.73,.7,3.14-1.5,5.5-2.76,1.26-.66,2.48-1,3.93-1.01,.9,0,3.08,.81,3.66,.65,3.12-.93,3.01-5.12,5.34-6.49,1.41-.83,3.43-.09,4.59-.99,1.27-.98,.9-3.72,2.67-4.95,1.56-1.09,3.29-.81,5.07-1.14,3.26-.6,2.08-.62,4.32-2.79,2.5-2.43,7.26-3.01,10.01-.88,6.18-6.37,12.19-2.29,15.73,3.61,3.19-.29,5.68-1.87,8.94-.56,2.09,.84,5.32,2.86,5.06,5.19,5.3-1.85,9.5-4.31,15.61-3.96,2.95,.17,5.16,.88,7.66,2.22,.71,.39,2.53,1.76,3.26,1.86,1.6,.22,1.77-.87,3.41-1.03,4.21-.42,3.05,2.39,5.24,4.03,1.26,.94,2.21,.33,3.43,.9,1.01,.49,1.75,1.85,2.65,2.24,2.83,1.2,4.44-1.57,7.35-.71,2.87,.84,2.06,2.96,5.66,2.79,2.11-.11,4.8-1.37,6.94-.26,2.7,1.4,1.96,3.92,2.73,6.09,1.4,3.94,7.25,3.89,9.67,7.69,1.79-4.09,7.52-6.79,12.34-5.85,.97,.18,1.81,1.26,2.74,1.47,1.84,.39,1.43-.17,3.25-.31,2.71-.23,4.81,.51,7.41,.93,1.41,.23,2.17,.07,3.35,.67,.91,.46,1.31,1.67,2.57,2.17,.54,.2,2.97,.5,3.4,.54,2.47,.22,1.57,.79,3.27-.84,2.26-2.17,2.07-2.97,5.67-4.02,2.13-.63,4.42-2.83,6.66-3.06,2.7-.28,5.42,2.13,6.26,4.08,1.46,3.36,.17,3.95,4.07,6.14,2.57,1.45,4.37,2.71,7,2.1,2.77-.65,4.59-3.92,8.01-3.4,3.49,.52,2.46,4.2,5.67,3.4,2.61-.66,4.08-3.87,7.31-4.33,5.48-.77,9.43,4.12,13.67-.59,2.96-3.29,4.53-3.33,8.69-4.55,4.3-1.26,6.22-1.78,9.73,1.09,1.6,1.3,1.97,2.38,4.26,2.16,2.67-.27,4.32-2.32,7.6-2.09,3.98,.29,6.37,2.1,6.12,6.1,3.01,1.21,5.09-.69,7.86,1.65,2.96,2.51,2.34,2.92,6.42,3.3,5.9,.54,10.48,5.63,15.67,6.17,3.56-4.45,10.22-5.45,15.61-4.26,.07,.29,.02,.54,.1,.83,1.93,.91,5.69-1.42,8.29-1.49,3.97-.11,4.57,.79,5.72,3.95,3.59,.09,7.6,.5,9.69,3.66,2.22,3.34-.3,5.22,3.92,6.91,1.59,.65,3.3,.56,4.66,1.76,1.19,1.06,1.23,3.12,2.66,3.72,1.01,.43,3.57-.8,5.01-.55,1.74,.3,3.48,1.34,4.39,2.64,1.72-.07,2.56-2.4,4.28-3.25,1.61-.78,3.33-.63,4.95-1.04-.42-6.47,3.85-10.12,10.72-9.8,1.07,.05,2.97,.64,3.92,.26,1.08-.42,1.72-2.2,3.08-2.8,2.55-1.13,5.1-.75,6.65,1.32,2.08,2.76,.54,3.76,5.03,3.38,3.64-.3,4.05,.56,7.07,1.76,2.37,.95,3.78-.24,6.91-.22,3.6,.02,3.36,1.61,5.92,2.78,2.54,1.16,6.49-1.42,10.08-1.24,3.53,.18,5.7,2.16,7.06,5.17,4.29-1.14,9.33-.71,10.28,4.36,2.24-2.18,7.33-3.16,10.44-3.59,2-.28,4.19,.84,5.89,.46,2.68-.59,1.78-.95,3.88-2.98,2.45-2.38,5.7-5.34,9.63-4.51,4.68,.98,3.85,5.21,5.98,7.91,1.16-1.38,2.46-3.04,4.51-3.4,3.87-.68,3.7,2.69,6.64,3.71,2.64,.91,8.39-.76,9.75-2.78,.89-1.33,.61-3.96,1.5-5.54,1.06-1.9,2.37-2.84,3.11-4.96,.62-1.77-.28-3.71,.6-5.43,.7-1.37,2.67-2.34,3.49-3.71,5.41,.16,3.34,12.95,12.02,12.97,1.72,0,3.57-1.41,5.89-1.06,1.7,.26,3.46,2.08,4.62,2.21,3.18,.38,6.5-3.03,10.89-1.79,1.43,.41,2.65,2.28,4.11,2.69,2.98,.84,2.16-.09,5.38-.85,1.9-.45,4.47-.64,6.5-.42,2.86,.3,3.15,1.67,4.57,2.2,4.09,1.53,9.71-.18,12.84,3.44,2.3,2.67,1.93,7.18,3.47,9.69,1.32,2.17,2.96,1.94,3.2,5.35,3.99-.03,4.55,.33,7.93,1.45,3.93,1.29,1.39,1.46,5.62-.8,5.32-2.85,9.13-3.04,14.37-.06,3.69-3.28,6.7-2.22,10.39-.49,2.6,1.22,1.03,1.65,3.97,1.69,1.55,.02,3.15-1.3,5.14-1.25,4.51,.12,6.85,3.62,8.5-2.31,1-3.61-.49-8.58,5.92-7.92-.4-9.22,7.95-7.92,14.08-9.13,3.58-.7,4.51-2.72,8.47-.85,3.09,1.46,4.07,4.56,6.53,6.42,2.84-3.21,5.76-5.55,9.14-5.27Z"/></g></g></svg>